<?xml version="1.0" encoding="utf-8"?>
<!-- Generator: Adobe Illustrator 16.0.0, SVG Export Plug-In . SVG Version: 6.00 Build 0)  -->
<!DOCTYPE svg PUBLIC "-//W3C//DTD SVG 1.0//EN" "http://www.w3.org/TR/2001/REC-SVG-20010904/DTD/svg10.dtd">
<svg version="1.0" id="Layer_1" xmlns="http://www.w3.org/2000/svg" xmlns:xlink="http://www.w3.org/1999/xlink" x="0px" y="0px"
	 width="800px" height="800px" viewBox="0 0 800 800" enable-background="new 0 0 800 800" xml:space="preserve">
<g>
	<path fill-rule="evenodd" clip-rule="evenodd" fill="#C88A11" d="M748.292,387.344c0,8.908,0,17.813,0,26.721
		c-0.663,0.882-0.456,1.921-0.442,2.887c0.085,6.231-0.688,12.41-1.218,18.595c-0.673,7.859-1.822,15.671-3.308,23.433
		c-1.453,7.59-2.622,15.224-4.584,22.722c-2.07,7.916-4.063,15.844-6.464,23.673c-3.5,11.413-7.652,22.577-12.403,33.517
		c-7.133,16.428-15.732,32.083-25.251,47.242c-8.176,13.021-17.383,25.305-27.112,37.179c-11.913,14.536-25.207,27.75-39.395,40.083
		c-11.822,10.274-24.427,19.496-37.44,28.162c-12.571,8.374-25.76,15.708-39.321,22.356c-8.081,3.961-16.33,7.563-24.72,10.819
		c-5.478,2.124-10.991,4.162-16.611,5.895c-4.524,1.396-9.018,2.896-13.567,4.202c-4.038,1.161-8.128,2.149-12.209,3.154
		c-3.118,0.77-6.252,1.484-9.394,2.153c-3.893,0.829-7.783,1.695-11.707,2.347c-4.836,0.8-9.678,1.572-14.535,2.246
		c-3.799,0.529-7.607,0.999-11.413,1.391c-6.482,0.667-12.999,1.006-19.501,1.489c-2.215,0.164-4.43,0.346-6.644,0.521
		c-4.561,0.02-9.121,0.051-13.682,0.058c-2.659,0.004-5.317-0.031-7.976-0.049c-2.52-0.206-5.037-0.492-7.56-0.604
		c-6.213-0.281-12.401-0.871-18.594-1.392c-3.284-0.276-6.563-0.688-9.824-1.179c-4.925-0.742-9.855-1.444-14.768-2.29
		c-5.362-0.924-10.702-1.959-16.003-3.14c-5.52-1.227-10.998-2.662-16.453-4.188c-5.593-1.568-11.167-3.206-16.669-5.044
		c-7.092-2.371-14.091-5.014-21.033-7.82c-11.115-4.492-21.939-9.592-32.477-15.278c-17.955-9.688-34.977-20.821-51.042-33.41
		c-17.551-13.753-33.621-29.058-48.158-45.96c-15.487-18.006-29.043-37.374-40.716-58.06c-5.79-10.259-10.991-20.804-15.694-31.605
		c-3.544-8.141-6.759-16.403-9.647-24.79c-2.192-6.365-4.177-12.803-5.904-19.315c-1.019-3.846-2.045-7.687-2.902-11.574
		c-1.038-4.71-2.337-9.366-3.239-14.101c-1.188-6.244-2.274-12.512-3.095-18.822c-1.16-8.901-2.201-17.809-2.675-26.776
		c-0.113-2.142-0.337-4.275-0.511-6.413c0.202-0.99-0.065-1.965-0.113-2.946c-0.118-2.405-0.75-4.767-0.626-7.194
		c0-4.608,0-9.215,0-13.822c0.031-1.049,0.099-2.089,0.211-3.138c0.219-2.019,0.669-4.03,0.51-6.083
		c0.723-4.861,0.534-9.792,1.174-14.667c0.61-4.637,0.797-9.331,1.47-13.955c0.993-6.822,1.982-13.646,3.294-20.422
		c1.588-8.195,3.378-16.338,5.489-24.415c2.613-9.995,5.711-19.833,9.211-29.551c4.853-13.473,10.564-26.57,17.144-39.276
		c12.592-24.32,27.785-46.907,45.587-67.728c18.181-21.26,38.655-40.02,61.409-56.287c15.656-11.192,32.065-21.126,49.327-29.661
		c7.73-3.823,15.583-7.363,23.568-10.598c6.153-2.492,12.387-4.788,18.713-6.834c5.163-1.67,10.338-3.28,15.551-4.787
		c5.293-1.529,10.629-2.89,15.984-4.154c5.809-1.373,11.686-2.459,17.545-3.612c2.33-0.459,4.686-0.784,7.035-1.131
		c3.109-0.459,6.22-0.901,9.337-1.307c3.877-0.506,7.751-1.112,11.646-1.406c5.125-0.387,10.221-1.19,15.378-1.146
		c0.294,0.003,0.591-0.14,0.887-0.215c0.295,0.18,0.576,0.166,0.838-0.067c0.452,0.113,0.899,0.14,1.334-0.068
		c0.6,0.011,1.2,0.035,1.799,0.029c3.241-0.029,6.458-0.607,9.709-0.448c2.764,0,5.529,0,8.293,0
		c0.267,0.135,0.53,0.384,0.801,0.391c3.55,0.103,7.101,0.17,10.651,0.246c0.541-0.1,1.07-0.098,1.575,0.157
		c0.462,0.029,0.925,0.057,1.387,0.086c0.611-0.013,1.225-0.054,1.834-0.031c6.755,0.232,13.452,1.084,20.168,1.778
		c7.327,0.757,14.6,1.882,21.842,3.144c5.348,0.932,10.669,2.067,15.976,3.258c6.646,1.492,13.25,3.146,19.787,5.024
		c6.312,1.814,12.551,3.877,18.757,6.052c7.566,2.653,15.032,5.554,22.366,8.768c12.648,5.543,24.885,11.897,36.797,18.902
		c24.636,14.485,47.289,31.538,67.742,51.518c16.882,16.489,31.855,34.556,45.003,54.139c8.525,12.696,16.306,25.833,23.173,39.508
		c5.974,11.893,11.195,24.094,15.73,36.606c3.783,10.442,7.032,21.044,9.747,31.801c2.359,9.353,4.318,18.795,5.895,28.325
		c1.276,7.72,2.36,15.458,3.19,23.229c0.649,6.099,1.309,12.205,1.364,18.353C747.712,384.299,748.479,385.783,748.292,387.344z
		 M534.659,703.241c3.258-1.017,6.195-2.756,9.301-4.114c2.735-1.347,5.505-2.631,8.201-4.054
		c11.878-6.263,23.442-13.05,34.525-20.65c10.899-7.475,21.352-15.528,31.394-24.11c1.826-1.563,3.745-3.093,5.218-5.047
		c2.386-1.814,4.479-3.943,6.593-6.054c0.473-0.388,0.979-0.74,1.412-1.166c7.51-7.416,14.761-15.074,21.64-23.078
		c0.334-0.388,0.856-0.688,0.814-1.32c0.487-0.131,0.703-0.554,0.998-0.903c8.485-10.153,16.267-20.826,23.516-31.885
		c1.418-2.162,3.063-4.176,4.256-6.499c0.525-1.023,0.458-1.73-0.071-2.729c-2.46-4.639-5.729-8.644-9.36-12.383
		c-5.938-6.116-12.801-11.046-19.922-15.671c-7.875-5.115-16.542-8.175-25.658-10.035c-3.445-0.704-6.972-1.021-10.479-1.416
		c-7.69-0.861-15.267-0.666-22.854,1.072c-8.122,1.861-15.526,5.182-21.862,10.521c-12.591,10.611-22.046,23.572-28.177,38.908
		c-2.101,5.255-4.208,10.505-5.711,15.975c-0.361,1.316-0.547,1.358-1.682,0.578c-1.317-0.906-2.627-1.823-3.913-2.775
		c-7.441-5.501-15.656-8.848-25.02-9.036c-4.151-0.084-8.258,0.15-12.339,1.036c-3.008,0.654-5.832,1.762-8.64,2.902
		c-0.611-0.66-0.583-1.446-0.674-2.204c-0.136-1.143-0.241-2.29-0.449-3.42c-0.955-5.197-1.932-10.383-3.181-15.522
		c-1.841-7.585-3.804-15.119-6.405-22.489c-5.049-14.3-12.556-27.144-22.435-38.625c-7.157-8.318-15.854-14.395-26.17-18.198
		c-4.461-1.644-8.99-2.953-13.668-3.806c-5.062-0.924-10.124-1.841-15.294-1.564c-7.989,0.428-15.787,1.843-23.385,4.441
		c-7.743,2.649-14.856,6.385-20.964,11.839c-10.564,9.435-18.546,20.816-24.759,33.487c-4.026,8.21-6.743,16.894-9.089,25.69
		c-2.465,9.249-4.662,18.564-6.024,28.054c-0.109,0.758-0.233,1.518-0.724,2.282c-5.16-2.47-10.643-3.657-16.347-3.879
		c-8.015-0.313-15.688,0.884-22.828,4.82c-3.489,1.925-6.659,4.291-9.907,6.56c-1.905,1.329-1.869,1.315-2.37-0.857
		c-0.414-1.79-0.909-3.56-1.415-5.325c-1.568-5.475-4.337-10.407-6.844-15.474c-5.435-10.981-12.335-20.835-21.115-29.437
		c-10.89-10.671-24.002-15.746-39.047-16.054c-7.686-0.157-15.288,0.844-22.807,2.529c-4.717,1.057-9.274,2.519-13.726,4.378
		c-5.752,2.396-10.854,5.842-15.738,9.645c-7.988,6.219-15.398,13.011-20.744,21.732c-3.074,5.013-3.272,3.526,0.112,8.829
		c6.288,9.854,13.148,19.317,20.408,28.486c1.743,2.202,3.242,4.614,5.408,6.464c0.146,0.995,0.949,1.566,1.541,2.23
		c4.718,5.306,9.454,10.599,14.472,15.622c2.628,2.632,5.08,5.456,8.029,7.761c2.066,2.148,4.133,4.297,6.576,6.038
		c0.297,0.756,0.985,1.147,1.541,1.664c6.68,6.196,13.942,11.681,21.118,17.268c5.729,4.464,11.506,8.903,17.648,12.758
		c7.566,4.749,15.16,9.475,22.993,13.799c5.277,2.911,10.524,5.87,16.049,8.298c0.275,0.127,0.549,0.253,0.824,0.377
		c2.797,1.28,5.415,2.971,8.463,3.669c0.708,0.996,1.883,1.187,2.894,1.632c6.648,2.925,13.412,5.563,20.262,7.969
		c5.117,1.799,10.273,3.493,15.487,5.009c4.849,1.411,9.717,2.738,14.607,3.998c4.823,1.241,9.697,2.231,14.575,3.197
		c4.507,0.893,9.051,1.617,13.594,2.306c5.454,0.828,10.91,1.708,16.396,2.258c4.728,0.474,9.467,0.895,14.203,1.307
		c7.657,0.667,15.325,0.897,22.991,0.937c12.514,0.064,24.983-0.97,37.426-2.25c2.744-0.281,5.484-0.643,8.207-1.09
		c4.838-0.796,9.691-1.489,14.519-2.368c5.124-0.936,10.228-1.968,15.299-3.133c5.439-1.249,10.839-2.678,16.213-4.211
		c5.444-1.553,10.845-3.232,16.201-5.049c6.297-2.135,12.524-4.477,18.641-7.086C529.87,705.556,532.467,704.827,534.659,703.241z
		 M400.074,283.552c24.417,0,48.833-0.003,73.25,0.005c3.381,0.001,3.035-0.358,3.035,3.128
		c0.007,35.703,0.004,71.406,0.004,107.109c0,0.69,0.016,1.381,0.011,2.072c-0.006,0.732,0.302,1.068,1.073,1.18
		c3.793,0.547,7.574,1.188,11.368,1.729c5.16,0.737,10.348,1.303,15.484,2.168c2.424,0.409,4.867,0.626,7.285,1.05
		c3.02,0.526,6.054,0.985,9.088,1.417c5.161,0.733,10.332,1.387,15.489,2.143c5.157,0.758,10.286,1.726,15.459,2.348
		c2.592,0.313,5.146,0.831,7.739,1.124c3.121,0.354,6.227,0.853,9.335,1.315c2.957,0.438,5.906,0.941,8.864,1.364
		c5.235,0.749,10.481,1.425,15.714,2.189c5.157,0.755,10.291,1.689,15.461,2.328c2.363,0.292,4.693,0.755,7.053,1.048
		c3.119,0.385,6.233,0.811,9.343,1.271c5.156,0.767,10.3,1.605,15.458,2.353c5.159,0.744,10.335,1.369,15.492,2.122
		s10.288,1.703,15.456,2.363c2.512,0.319,5.001,0.769,7.509,1.104c3.418,0.458,6.83,0.968,10.242,1.467
		c2.807,0.412,5.606,0.863,8.415,1.26c5.161,0.727,10.331,1.39,15.488,2.146c5.081,0.745,10.148,1.582,15.225,2.357
		c1.519,0.232,1.617,0.142,1.79-1.53c0.243-2.366,0.497-4.732,0.66-7.103c0.231-3.369,0.331-6.748,0.581-10.115
		c0.52-6.969,0.792-13.944,0.521-20.931c-0.432-11.194-1.117-22.365-2.463-33.499c-0.671-5.56-1.419-11.104-2.328-16.622
		c-0.909-5.512-1.994-10.996-3.197-16.461c-1.828-8.301-3.983-16.502-6.394-24.651c-3.235-10.938-7.093-21.651-11.54-32.145
		c-8.402-19.829-18.693-38.621-30.855-56.422c-20.457-29.937-44.942-56.019-73.712-78.095c-14.733-11.305-30.263-21.37-46.63-30.126
		c-8.205-4.391-16.633-8.347-25.207-11.967c-6.187-2.61-12.456-5.032-18.806-7.222c-4.188-1.445-8.436-2.714-12.656-4.062
		c-3.569-1.139-7.171-2.164-10.808-3.068c-4.379-1.089-8.739-2.261-13.14-3.252c-3.732-0.841-7.525-1.411-11.267-2.219
		c-4.575-0.987-9.202-1.701-13.827-2.321c-6.685-0.896-13.384-1.704-20.122-2.215c-11.254-0.853-22.506-1.646-33.794-1.335
		c-7.132,0.196-14.27,0.444-21.381,1.088c-6.721,0.607-13.449,1.142-20.131,2.164c-2.194,0.336-4.389,0.726-6.594,0.976
		c-4.425,0.502-8.784,1.394-13.139,2.244c-4.879,0.953-9.729,2.071-14.57,3.232c-6.176,1.481-12.294,3.163-18.364,4.994
		c-7.969,2.404-15.83,5.164-23.559,8.253c-12.688,5.07-25.061,10.846-36.972,17.546c-28.366,15.954-54.142,35.331-76.948,58.6
		c-15.884,16.208-29.952,33.87-42.291,52.903c-9.162,14.133-17.339,28.812-24.218,44.2c-3.777,8.449-7.21,17.029-10.249,25.773
		c-2.211,6.357-4.237,12.771-6.037,19.25c-1.925,6.935-3.585,13.937-5.061,20.984c-1.208,5.776-2.3,11.574-3.17,17.401
		c-0.881,5.911-1.645,11.843-2.258,17.797c-0.607,5.879-1.112,11.771-1.411,17.663c-0.611,12.036-0.679,24.088,0.407,36.114
		c0.386,4.28,0.423,8.587,1.041,12.847c0.216,1.486,0.282,1.549,1.731,1.327c7.273-1.112,14.538-2.293,21.823-3.314
		c2.355-0.33,4.702-0.697,7.053-1.039c5.235-0.757,10.484-1.406,15.717-2.171c5.157-0.753,10.295-1.639,15.454-2.384
		c7.283-1.052,14.583-1.984,21.865-3.043c7.281-1.062,14.542-2.271,21.828-3.292c2.582-0.363,5.157-0.763,7.738-1.13
		c5.16-0.729,10.326-1.429,15.487-2.158c3.718-0.526,7.434-1.076,11.149-1.623c2.806-0.414,5.61-0.838,8.415-1.266
		c3.03-0.463,6.056-0.961,9.092-1.393c5.161-0.731,10.332-1.385,15.489-2.143c5.157-0.755,10.286-1.722,15.458-2.348
		c2.516-0.304,4.993-0.818,7.509-1.104c3.045-0.346,6.08-0.8,9.111-1.252c5.156-0.767,10.302-1.6,15.46-2.344
		c5.159-0.746,10.334-1.375,15.491-2.129c5.31-0.776,10.604-1.653,15.908-2.464c1.892-0.289,1.896-0.26,1.916-2.204
		c0.004-0.461,0.001-0.922,0.001-1.382c0-35.703-0.003-71.406,0.004-107.11c0.001-3.081-0.415-2.864,2.806-2.865
		C351.241,283.551,375.657,283.552,400.074,283.552z M725.195,465.268c-2.139-0.343-4.098-0.682-6.064-0.968
		c-2.958-0.428-5.927-0.788-8.884-1.229c-5.23-0.782-10.452-1.635-15.686-2.395c-5.158-0.749-10.333-1.38-15.49-2.134
		c-5.233-0.764-10.44-1.729-15.688-2.379c-2.438-0.304-4.848-0.755-7.281-1.072c-5.168-0.678-10.33-1.404-15.486-2.159
		c-5.234-0.77-10.452-1.633-15.687-2.391c-5.158-0.749-10.333-1.378-15.491-2.129c-5.233-0.765-10.439-1.739-15.688-2.377
		c-2.516-0.306-4.992-0.815-7.509-1.104c-3.121-0.356-6.23-0.83-9.34-1.289c-3.033-0.449-6.055-0.979-9.091-1.408
		c-5.159-0.733-10.333-1.378-15.489-2.132c-5.158-0.755-10.292-1.677-15.456-2.379c-6.306-0.859-12.597-1.801-18.893-2.72
		c-2.426-0.354-4.849-0.742-7.279-1.077c-5.163-0.709-10.331-1.4-15.491-2.136c-5.918-0.842-11.831-1.717-17.746-2.583
		c-2.731-0.4-5.461-0.809-8.188-1.227c-3.032-0.463-6.056-0.978-9.092-1.407c-5.16-0.73-10.334-1.371-15.492-2.126
		c-5.232-0.767-10.446-1.666-15.68-2.429c-5.157-0.751-10.35-1.282-15.486-2.146c-2.65-0.442-5.339-0.604-7.961-1.191
		c-2.806-0.632-5.646-0.802-8.464-0.348c-4.467,0.72-8.947,1.331-13.428,1.956c-5.162,0.72-10.29,1.696-15.46,2.339
		c-2.514,0.313-4.999,0.784-7.511,1.097c-3.119,0.388-6.231,0.826-9.339,1.285c-5.157,0.762-10.304,1.593-15.463,2.332
		c-5.16,0.742-10.335,1.371-15.493,2.125c-5.233,0.767-10.438,1.738-15.685,2.393c-2.438,0.306-4.849,0.746-7.281,1.072
		c-5.243,0.699-10.479,1.446-15.715,2.186c-3.643,0.515-7.285,1.035-10.924,1.575c-3.033,0.45-6.061,0.939-9.092,1.398
		c-2.881,0.434-5.761,0.868-8.646,1.273c-5.16,0.729-10.33,1.404-15.487,2.16c-5.233,0.769-10.45,1.646-15.685,2.403
		c-5.158,0.746-10.336,1.355-15.493,2.111c-7.357,1.078-14.692,2.31-22.054,3.34c-6.301,0.882-12.595,1.811-18.892,2.723
		c-2.426,0.353-4.849,0.742-7.279,1.077c-5.24,0.72-10.482,1.424-15.716,2.188c-5.157,0.755-10.291,1.694-15.464,2.314
		c-2.441,0.293-4.841,0.8-7.281,1.072c-3.047,0.342-6.082,0.796-9.115,1.247c-5.155,0.769-10.296,1.635-15.46,2.347
		c-6.15,0.848-12.308,1.65-18.426,2.711c-1.655,0.288-1.728,0.395-1.354,2.069c0.866,3.886,1.784,7.762,2.602,11.656
		c0.189,0.908,0.565,1.186,1.397,0.964c1.938-0.512,3.938-0.604,5.909-0.903c7.046-1.068,14.07-2.3,21.125-3.311
		c2.354-0.334,4.695-0.739,7.047-1.076c5.007-0.718,10.019-1.416,15.018-2.178c5.001-0.762,9.986-1.626,14.988-2.381
		c5.002-0.754,10.022-1.39,15.023-2.149s9.981-1.659,14.983-2.41c7.049-1.057,14.129-1.918,21.157-3.097
		c2.872-0.483,5.767-0.811,8.635-1.354c2.476-0.468,4.993-0.798,7.496-1.167c5.004-0.74,10.017-1.425,15.018-2.185
		c5.001-0.762,9.986-1.626,14.987-2.379c5.002-0.756,10.023-1.39,15.024-2.149c4.924-0.749,9.82-1.71,14.759-2.339
		c2.513-0.321,4.99-0.835,7.504-1.137c2.967-0.354,5.921-0.824,8.875-1.28c4.923-0.762,9.837-1.584,14.764-2.324
		c5.003-0.751,10.021-1.393,15.022-2.155c5-0.76,9.981-1.654,14.983-2.405c7.049-1.057,14.125-1.949,21.158-3.1
		c2.346-0.383,4.708-0.648,7.049-1.061c2.943-0.517,5.896-0.992,8.853-1.432c5.004-0.744,10.019-1.413,15.019-2.173
		c5.001-0.76,9.986-1.619,14.987-2.379c0.975-0.148,2.004-0.146,2.983-0.021c2.508,0.319,5.005,0.738,7.502,1.135
		c4.919,0.786,9.83,1.619,14.755,2.366c5.002,0.76,10.021,1.401,15.021,2.164c5.002,0.764,9.975,1.729,14.989,2.372
		c2.361,0.302,4.686,0.796,7.046,1.081c2.891,0.348,5.771,0.791,8.648,1.238c4.997,0.775,9.986,1.617,14.987,2.375
		c4.927,0.746,9.87,1.378,14.794,2.138c6.968,1.072,13.913,2.302,20.894,3.285c2.354,0.332,4.693,0.749,7.046,1.083
		c5.085,0.72,10.162,1.486,15.238,2.267c4.848,0.744,9.687,1.555,14.538,2.283c4.925,0.74,9.866,1.378,14.79,2.129
		c5.001,0.765,9.981,1.662,14.983,2.417c6.972,1.053,13.962,1.982,20.932,3.046c6.971,1.062,13.918,2.286,20.895,3.299
		c2.505,0.361,5,0.782,7.504,1.141c4.931,0.709,9.864,1.409,14.787,2.164c4.924,0.758,9.831,1.615,14.756,2.362
		c5.002,0.76,10.022,1.396,15.022,2.166c6.969,1.07,13.915,2.293,20.893,3.308c5.992,0.868,11.978,1.772,17.956,2.729
		c2.355,0.376,2.266,0.748,2.948-1.91C723.681,473.772,724.726,469.691,725.195,465.268z M421.849,330.236
		c1.002-0.726,1.759-1.461,2.425-2.292c2.097-2.616,2.994-5.59,3.037-8.94c0.051-4.02-0.073-7.948-2-11.633
		c-3.232-6.182-10.328-7.938-15.674-5.256c-2.533,1.271-4.262,3.411-5.555,5.89c-1.761,3.376-2.109,7.029-1.821,10.737
		c0.34,4.383,1.543,8.413,5.347,11.173c0.096,0.068,0.1,0.267,0.174,0.488c-1.98,1.754-3.674,3.74-4.718,6.288
		c-2.301,5.613-2.315,11.326-1.067,17.137c0.521,2.426,1.552,4.619,2.95,6.67c4.552,6.671,15.027,7.662,19.937,0.089
		c1.733-2.675,3.051-5.48,3.56-8.617C429.771,343.796,429.123,336.181,421.849,330.236z M385.443,338.856
		c0.291,0.14,0.28,0.375,0.286,0.593c0.085,3.473-0.413,6.889-1.183,10.253c-0.445,1.95-1.368,3.733-2.849,5.149
		c-1.271,1.215-3.28,1.38-4.623,0.307c-1.155-0.923-1.972-2.122-2.386-3.571c-0.246-0.86,0.297-2.152-0.589-2.528
		c-0.815-0.346-1.938,0.033-2.926,0.099c-0.229,0.015-0.458,0.049-0.685,0.086c-3.788,0.614-3.841,0.624-3.21,4.395
		c0.391,2.341,1.254,4.532,2.271,6.695c3.164,6.718,11.791,6.805,16.231,3.016c3.338-2.848,5.231-6.527,6.297-10.664
		c1.382-5.368,1.898-10.853,1.931-16.391c0.042-7.518,0.116-15.033-1.882-22.378c-0.913-3.355-2.357-6.426-4.576-9.146
		c-4.129-5.061-11.738-5.057-15.868-0.288c-2.049,2.363-3.528,5.019-4.355,7.966c-1.84,6.553-1.85,13.179-0.028,19.741
		c0.842,3.034,2.236,5.843,4.494,8.138c3.574,3.635,9.099,3.927,12.422-0.317C384.537,339.598,384.683,338.812,385.443,338.856z
		 M449.196,364.808c4.223,0,8.445-0.012,12.668,0.009c0.87,0.004,1.473-0.099,1.456-1.21c-0.044-2.993-0.023-5.987-0.01-8.982
		c0.003-0.845-0.32-1.302-1.218-1.26c-0.459,0.021-0.921-0.002-1.382-0.003c-3.608,0-7.216,0.003-10.825-0.002
		c-2.932-0.003-2.95-0.018-1.485-2.656c0.666-1.201,1.368-2.39,2.153-3.515c1.704-2.442,3.42-4.881,5.221-7.252
		c5.557-7.314,8.126-15.496,7.355-24.691c-0.366-4.371-2.09-8.074-5.184-11.198c-4.199-4.238-12.677-4.226-16.921,0.668
		c-3.531,4.073-4.662,8.843-4.939,13.989c-0.037,0.691,0.326,0.911,0.938,1.039c1.877,0.396,3.752,0.772,5.672,0.94
		c0.934,0.081,1.244-0.249,1.349-1.074c0.175-1.369,0.337-2.743,0.594-4.1c0.43-2.262,2.298-4.179,4.331-4.543
		c2.037-0.365,3.596,0.52,4.986,2.868c1.521,2.57,1.783,5.34,1.177,8.207c-0.656,3.103-2.093,5.896-3.669,8.604
		c-2.427,4.166-5.377,7.982-8.184,11.89c-4.415,6.146-7.451,12.807-8.124,20.428c-0.159,1.792-0.178,1.828,1.604,1.837
		C440.904,364.822,445.05,364.808,449.196,364.808z M343.998,319.573c0.198,0.05,0.396,0.099,0.595,0.148c0,0.813,0,1.626,0,2.438
		c0,13.195,0,26.392,0,39.588c0,0.613,0.03,1.229,0.002,1.84c-0.039,0.877,0.355,1.236,1.229,1.223
		c1.763-0.027,3.531-0.059,5.292,0.015c1.158,0.046,1.499-0.467,1.395-1.51c-0.038-0.38-0.004-0.767-0.004-1.15
		c0-19.487,0-38.974,0-58.46c0-0.537-0.023-1.074-0.001-1.61c0.033-0.772-0.331-1.126-1.087-1.126
		c-1.38-0.001-2.762,0.019-4.142-0.02c-0.814-0.023-1.208,0.272-1.437,1.103c-0.343,1.244-0.826,2.46-1.344,3.647
		c-1.564,3.582-4.487,6.124-6.955,9.018c-1.018,1.194-3.025,1.484-3.327,3.19c-0.278,1.563-0.065,3.212-0.066,4.823
		c-0.001,1.151-0.025,2.302,0.012,3.451c0.016,0.49-0.237,1.077,0.402,1.489C338.429,325.847,341.173,322.66,343.998,319.573z"/>
	<path fill-rule="evenodd" clip-rule="evenodd" fill="#FAFAFC" d="M411.053,748.129c0.001,0.137,0,0.276-0.002,0.414
		c-7.218,0-14.436,0-21.654,0c-0.002-0.135-0.003-0.271-0.001-0.405c2.658,0.018,5.316,0.053,7.976,0.049
		C401.932,748.18,406.492,748.148,411.053,748.129z"/>
	<path fill-rule="evenodd" clip-rule="evenodd" fill="#C98B12" d="M415.657,51.484c-0.264,0.188-0.284,0.4-0.064,0.637
		c-3.551-0.076-7.102-0.144-10.651-0.246c-0.271-0.007-0.534-0.256-0.801-0.391C407.979,51.484,411.818,51.484,415.657,51.484z"/>
	<path fill-rule="evenodd" clip-rule="evenodd" fill="#FEFEFE" d="M400.074,283.552c-24.417,0-48.833-0.001-73.249,0.002
		c-3.22,0.001-2.805-0.216-2.806,2.865c-0.008,35.704-0.004,71.407-0.004,107.11c0,0.46,0.003,0.921-0.001,1.382
		c-0.02,1.944-0.024,1.915-1.916,2.204c-5.303,0.811-10.598,1.688-15.908,2.464c-5.157,0.754-10.332,1.383-15.491,2.129
		c-5.158,0.744-10.304,1.577-15.46,2.344c-3.031,0.452-6.066,0.906-9.111,1.252c-2.516,0.285-4.993,0.8-7.509,1.104
		c-5.172,0.626-10.301,1.593-15.458,2.348c-5.157,0.758-10.329,1.411-15.489,2.143c-3.036,0.432-6.062,0.93-9.092,1.393
		c-2.805,0.428-5.609,0.852-8.415,1.266c-3.715,0.547-7.431,1.097-11.149,1.623c-5.161,0.729-10.327,1.43-15.487,2.158
		c-2.581,0.367-5.156,0.767-7.738,1.13c-7.286,1.021-14.546,2.23-21.828,3.292c-7.282,1.059-14.582,1.991-21.865,3.043
		c-5.158,0.745-10.296,1.631-15.454,2.384c-5.233,0.765-10.482,1.414-15.717,2.171c-2.351,0.342-4.698,0.709-7.053,1.039
		c-7.286,1.021-14.55,2.202-21.823,3.314c-1.449,0.222-1.516,0.159-1.731-1.327c-0.618-4.26-0.655-8.566-1.041-12.847
		c-1.085-12.026-1.018-24.078-0.407-36.114c0.299-5.892,0.804-11.784,1.411-17.663c0.614-5.954,1.377-11.886,2.258-17.797
		c0.871-5.827,1.962-11.625,3.17-17.401c1.475-7.048,3.136-14.05,5.061-20.984c1.8-6.479,3.826-12.893,6.037-19.25
		c3.039-8.744,6.472-17.324,10.249-25.773c6.879-15.389,15.057-30.067,24.218-44.2c12.339-19.033,26.407-36.695,42.291-52.903
		c22.806-23.269,48.582-42.646,76.948-58.6c11.911-6.7,24.284-12.476,36.972-17.546c7.729-3.089,15.59-5.849,23.559-8.253
		c6.07-1.831,12.188-3.513,18.364-4.994c4.84-1.161,9.691-2.279,14.57-3.232c4.355-0.851,8.714-1.742,13.139-2.244
		c2.205-0.25,4.399-0.64,6.594-0.976c6.682-1.022,13.41-1.557,20.131-2.164c7.111-0.644,14.249-0.892,21.381-1.088
		c11.288-0.311,22.54,0.482,33.794,1.335c6.738,0.511,13.438,1.318,20.122,2.215c4.625,0.62,9.252,1.334,13.827,2.321
		c3.741,0.808,7.534,1.378,11.267,2.219c4.4,0.991,8.761,2.163,13.14,3.252c3.637,0.904,7.238,1.93,10.808,3.068
		c4.221,1.348,8.469,2.616,12.656,4.062c6.35,2.189,12.619,4.611,18.806,7.222c8.574,3.62,17.002,7.576,25.207,11.967
		c16.367,8.756,31.896,18.821,46.63,30.126c28.77,22.076,53.255,48.158,73.712,78.095c12.162,17.801,22.453,36.593,30.855,56.422
		c4.447,10.493,8.305,21.206,11.54,32.145c2.41,8.149,4.565,16.351,6.394,24.651c1.203,5.465,2.288,10.949,3.197,16.461
		c0.909,5.518,1.657,11.063,2.328,16.622c1.346,11.134,2.031,22.305,2.463,33.499c0.271,6.986-0.002,13.962-0.521,20.931
		c-0.25,3.367-0.35,6.746-0.581,10.115c-0.163,2.37-0.417,4.736-0.66,7.103c-0.173,1.672-0.271,1.763-1.79,1.53
		c-5.076-0.775-10.144-1.612-15.225-2.357c-5.157-0.757-10.327-1.42-15.488-2.146c-2.809-0.396-5.608-0.848-8.415-1.26
		c-3.412-0.499-6.824-1.009-10.242-1.467c-2.508-0.335-4.997-0.784-7.509-1.104c-5.168-0.66-10.299-1.61-15.456-2.363
		s-10.333-1.378-15.492-2.122c-5.158-0.747-10.302-1.586-15.458-2.353c-3.109-0.461-6.224-0.887-9.343-1.271
		c-2.359-0.293-4.689-0.756-7.053-1.048c-5.17-0.639-10.304-1.573-15.461-2.328c-5.232-0.765-10.479-1.44-15.714-2.189
		c-2.958-0.423-5.907-0.926-8.864-1.364c-3.108-0.463-6.214-0.962-9.335-1.315c-2.593-0.293-5.147-0.812-7.739-1.124
		c-5.173-0.622-10.302-1.59-15.459-2.348c-5.157-0.756-10.328-1.409-15.489-2.143c-3.034-0.432-6.068-0.891-9.088-1.417
		c-2.418-0.424-4.861-0.641-7.285-1.05c-5.137-0.865-10.324-1.431-15.484-2.168c-3.794-0.541-7.575-1.182-11.368-1.729
		c-0.771-0.111-1.079-0.447-1.073-1.18c0.005-0.691-0.011-1.382-0.011-2.072c0-35.703,0.003-71.406-0.004-107.109
		c0-3.486,0.346-3.127-3.035-3.128C448.907,283.549,424.49,283.552,400.074,283.552z M492.397,272.523
		c0.205-0.476,0.004-0.719-0.154-0.979c-5.016-8.214-10.064-16.409-15.009-24.667c-0.748-1.248-1.676-1.329-2.861-1.329
		c-49.435,0.009-98.871,0.015-148.305-0.024c-1.49-0.001-2.338,0.45-3.104,1.745c-4.702,7.958-9.496,15.863-14.257,23.788
		c-0.267,0.444-0.686,0.863-0.332,1.466C369.731,272.523,431.091,272.523,492.397,272.523z M186.455,244.77
		c-1.234,0.222-2.021-0.015-2.827-0.117c-4.031-0.517-8.063-1.015-12.1-1.492c-3.426-0.404-6.861-0.739-10.284-1.164
		c-6.391-0.793-12.763-1.764-19.17-2.394c-3.283-0.323-6.516-1.049-9.827-1.132c-0.949-0.024-1.497,0.193-1.977,1.105
		c-1.387,2.629-2.84,5.232-4.434,7.739c-0.871,1.368-0.735,2.329,0.22,3.589c6.589,8.696,13.107,17.446,19.647,26.182
		c3.193,4.266,6.382,8.537,9.574,12.809c-0.517,0.587-1.12,0.771-1.695,0.927c-2.654,0.726-5.327,1.386-7.98,2.111
		c-3.701,1.011-7.28,2.303-10.308,4.771c-0.58,0.473-1.062,1.087-2.167,1.202c0.931-2.869,0.76-5.673,0.107-8.462
		c-0.879-3.754-2.863-6.718-6.309-8.573c-2.823-1.521-5.84-2.211-9.063-2.022c-4.553,0.266-7.992,2.4-10.363,6.222
		c-1.531,2.467-2.745,5.117-3.739,7.843c-3.039,8.322-6.007,16.669-9.026,24.997c-0.352,0.971-0.292,1.417,0.864,1.798
		c5.363,1.769,10.684,3.666,16.014,5.537c11.001,3.863,21.999,7.739,33.167,11.669c1.246-3.545,2.463-6.983,3.662-10.431
		c0.288-0.826-0.315-1.074-0.927-1.277c-3.908-1.298-7.848-2.511-11.717-3.92c-2.694-0.979-5.5-1.681-8.113-2.948
		c0.46-1.256,0.912-2.383,1.288-3.534c1.216-3.72,3.532-6.225,7.328-7.572c6.269-2.226,12.679-3.988,19.028-5.939
		c1.481-0.454,2.25-1.119,2.589-2.471c0.847-3.374,2.377-6.422,4.291-9.307c0.884-1.333,1.654-2.742,2.472-4.118
		c1.083-1.822,1.089-1.829-0.238-3.557c-1.859-2.421-3.665-4.885-5.625-7.22c-0.837-0.998-0.897-1.701-0.237-2.824
		c3.287-5.592,6.478-11.238,9.701-16.867c1.076-1.88,1.071-1.873,3.239-1.487c2.942,0.521,5.889,1.012,8.829,1.549
		c1.34,0.246,2.249,0.037,2.908-1.406c0.818-1.792,2.27-3.316,2.958-5.141c0.79-2.096,2.746-2.797,4.059-4.231
		c2.15-2.349,4.286-4.71,6.401-7.036c-0.183-0.262-0.248-0.402-0.354-0.499c-3.376-3.09-6.764-6.166-10.126-9.271
		c-0.588-0.543-1.362-0.946-1.396-1.958c-0.112-3.528-0.292-7.054-0.705-10.563c-0.082-0.698,0.175-1.084,0.873-0.897
		c2.314,0.619,4.718,0.541,7.061,0.979c3.01,0.562,6.058,0.928,9.092,1.358c3.415,0.484,6.853,0.839,10.24,1.472
		c1.418,0.266,2.205-0.047,3.104-1.129c2.386-2.874,4.917-5.63,7.412-8.413c0.44-0.492,0.968-0.901,1.129-1.614
		c-0.651-0.426-1.361-0.345-2.033-0.376c-3.837-0.18-7.629-0.799-11.439-1.21c-7.927-0.855-15.843-1.832-23.781-2.601
		c-1.828-0.177-1.856-0.163-1.905-2.056c-0.225-8.743-0.922-17.469-0.935-26.219c-0.001-0.409,0.199-0.961-0.611-1.175
		c-0.398,0.434-0.858,0.924-1.307,1.427c-2.286,2.564-4.481,5.215-6.883,7.665c-1.493,1.525-2.415,3.03-1.763,5.215
		c0.17,0.572,0.073,1.222,0.132,1.833c0.427,4.431,0.381,8.887,0.805,13.325c0.434,4.548,0.529,9.129,0.801,14.217
		c-5.93-5.208-11.508-10.106-17.171-15.081c-2.75,3.014-5.407,5.926-8.104,8.883C161.349,222.572,173.775,233.558,186.455,244.77z
		 M535.189,180.142c0.287-0.364,0.494-0.588,0.658-0.841c3.44-5.309,6.833-10.65,10.342-15.914c0.972-1.458,0.792-2.073,2.724-0.555
		c0.898,0.705,1.845,1.355,2.811,1.967c3.128,1.978,4.354,4.91,4.499,8.492c0.264,6.513,0.88,13.01,0.932,19.533
		c0.01,1.253,0.404,2.08,1.563,2.777c3.063,1.846,6.016,3.875,9.018,5.822c0.371,0.24,0.759,0.553,1.311,0.129
		c-0.021-5.693,0.064-11.448-0.53-17.173c-0.307-2.953-0.216-5.972-1.329-8.827c-0.396-1.016-1.11-1.968-1.054-3.304
		c1.454,0.499,2.775,1.061,4.152,1.402c2.559,0.636,5.141,0.693,7.709-0.053c4.629-1.345,7.381-4.66,9.283-8.849
		c2.625-5.779,0.408-12.036-3.04-14.944c-0.93-0.784-1.783-1.661-2.725-2.431c-3.605-2.951-7.684-5.214-11.513-7.842
		c-4.771-3.274-9.622-6.433-14.385-9.72c-1.009-0.695-1.595-0.613-2.154,0.395c-0.11,0.199-0.2,0.413-0.324,0.604
		c-7.231,11.128-14.473,22.251-21.694,33.385c-2.029,3.129-4.006,6.293-6.073,9.542
		C528.644,176.004,531.823,178.176,535.189,180.142z M400.004,123.476c-0.655-0.758-1.018-1.123-1.321-1.534
		c-4.35-5.894-8.689-11.794-13.034-17.689c-3.126-4.241-6.242-8.489-9.4-12.703c-0.461-0.614-0.789-1.419-1.913-1.334
		c-3.137,0.237-6.282,0.336-9.425,0.486c-0.916,0.043-1.4,0.414-1.312,1.431c0.107,1.222,0.082,2.455,0.163,3.68
		c0.731,11.102,1.155,22.218,1.682,33.331c0.208,4.367,0.538,8.729,0.708,13.098c0.05,1.246,0.514,1.534,1.657,1.472
		c2.453-0.133,4.91-0.132,7.365-0.229c1.895-0.074,1.918-0.104,1.863-1.981c-0.106-3.604-0.523-7.189-0.565-10.8
		c-0.057-4.91-0.341-9.813-0.691-14.712c-0.138-1.945-0.022-3.91-0.022-6.176c0.636,0.748,1.134,1.279,1.572,1.857
		c7.277,9.606,14.571,19.201,21.787,28.854c0.801,1.071,1.588,1.434,2.867,1.36c2.682-0.15,5.371-0.138,8.057-0.225
		c2.019-0.068,2.019-0.091,1.926-2.092c-0.01-0.229-0.06-0.456-0.07-0.686c-0.438-9.656-0.87-19.313-1.307-28.969
		c-0.305-6.744-0.631-13.487-0.896-20.232c-0.041-1.034-0.429-1.324-1.395-1.261c-2.831,0.188-5.667,0.335-8.503,0.473
		c-0.963,0.047-1.313,0.468-1.26,1.451c0.156,2.911,0.216,5.827,0.347,8.74C399.24,107.055,399.614,115.022,400.004,123.476z
		 M577.206,188c-0.244,0.173-0.402,0.237-0.486,0.354c-0.31,0.435-0.612,0.876-0.888,1.334c-4.226,7.022-4.356,14.036,0.19,20.954
		c3.715,5.653,8.723,9.895,14.535,13.323c4.47,2.638,9.051,3.093,13.896,1.56c4.328-1.369,6.76-4.779,8.842-8.503
		c0.443-0.792,0.854-1.624,0.922-2.574c0.243-3.406,0.068-6.727-1.539-9.86c-0.837-1.631-1.648-3.272-2.636-4.818
		c-2.134-3.345-4.336-6.649-6.413-10.03c-1.072-1.743-2.221-3.506-2.457-5.615c-0.344-3.078,1.914-4.966,4.889-4.086
		c4.55,1.348,7.744,4.321,10.127,8.354c1.08,1.827,0.949,3.663,0.559,5.551c-0.151,0.733-0.474,1.49-0.916,2.091
		c-0.56,0.761-0.293,1.281,0.241,1.784c2.536,2.384,5.089,4.748,7.598,7.083c0.663-0.238,0.971-0.687,1.292-1.112
		c4.17-5.518,4.521-11.508,1.515-17.507c-3.274-6.536-8.593-11.272-14.982-14.698c-3.879-2.08-7.957-2.782-12.41-1.353
		c-4.109,1.32-8.656,6.577-8.924,10.944c-0.233,3.801,0.589,7.24,2.378,10.563c1.889,3.507,4.279,6.685,6.328,10.083
		c1.341,2.223,2.777,4.387,3.676,6.854c0.362,0.996,0.424,1.911,0.049,2.899c-1.058,2.788-3.709,4.128-6.933,3.311
		c-3.598-0.912-6.458-3.079-8.933-5.746c-2.238-2.411-3.31-5.272-2.941-8.621c0.188-1.713,0.763-3.259,1.683-4.696
		c0.44-0.687,0.65-1.229-0.25-1.868C582.492,192.023,579.847,189.977,577.206,188z M680.272,282.124
		c0.414,0.866,0.775,1.538,1.065,2.241c3.441,8.323,6.868,16.651,10.306,24.977c0.523,1.265,0.805,1.374,2.101,0.808
		c1.816-0.794,3.581-1.729,5.439-2.403c1.162-0.423,1.382-0.815,0.873-1.979c-1.621-3.705-3.121-7.465-4.65-11.209
		c-3.464-8.481-6.917-16.968-10.377-25.45c-0.604-1.482-0.843-1.604-2.42-0.989c-1.705,0.665-3.376,1.413-5.068,2.11
		c-7.97,3.277-15.942,6.546-23.909,9.826c-5.643,2.323-11.284,4.646-16.91,7.004c-1.607,0.675-1.564,0.726-0.936,2.257
		c3.887,9.463,7.766,18.93,11.647,28.394c1.274,3.108,2.534,6.225,3.835,9.321c0.608,1.446,0.717,1.5,2.177,0.903
		c1.834-0.75,3.648-1.555,5.445-2.392c1.453-0.677,1.421-0.709,0.843-2.111c-3.724-9.032-7.437-18.071-11.173-27.098
		c-0.328-0.792-0.275-1.204,0.62-1.559c3.543-1.408,7.049-2.903,10.574-4.357c1.295-0.534,1.599-0.436,2.122,0.815
		c2.236,5.353,4.442,10.719,6.674,16.074c1.116,2.679,2.286,5.334,3.38,8.021c0.342,0.842,0.796,0.99,1.579,0.643
		c2.287-1.016,4.688-1.785,6.901-3.071c-3.569-8.774-7.108-17.47-10.752-26.427C673.162,285.037,676.599,283.629,680.272,282.124z
		 M689.561,346.425c-0.224-3.239-0.098-5.854,0.266-8.436c0.255-1.803,0.693-3.7,2.634-4.518c2.132-0.897,4.002-0.169,5.495,2.029
		c1.862,2.742,2.405,5.922,2.806,9.113c0.308,2.459-0.284,4.717-1.971,6.62c-0.775,0.875-1.732,1.519-2.764,2.012
		c-0.946,0.451-1.109,1.009-0.845,2.003c0.768,2.882,1.413,5.796,2.117,8.694c0.217,0.895,0.698,1.336,1.669,0.919
		c0.488-0.209,1.025-0.309,1.503-0.536c7.99-3.798,9.95-9.344,9.882-16.579c-0.042-4.37-0.802-8.701-2.257-12.848
		c-1.198-3.413-2.845-6.592-5.622-9.052c-2.798-2.477-6.082-4.104-9.78-3.892c-5.468,0.316-9.966,3.528-12.194,9.333
		c-1.476,3.843-1.749,7.907-1.742,11.992c0.003,2.688-0.037,5.374-0.035,8.062c0,1.783-0.338,3.499-0.947,5.169
		c-0.925,2.536-3.289,3.746-5.851,2.995c-2.436-0.715-4.027-2.431-5.198-4.549c-1.548-2.805-2.204-5.87-2.173-9.054
		c0.017-1.838,0.224-3.675,1.276-5.289c1.235-1.896,2.927-3.281,4.875-4.382c1.452-0.82,1.437-0.807,0.928-2.427
		c-0.756-2.403-1.491-4.814-2.216-7.229c-0.469-1.558-0.817-1.803-2.247-1.231c-8.057,3.219-11.967,8.864-12.166,17.165
		c-0.153,6.413,1.262,12.676,3.741,18.568c2.54,6.035,7.096,9.886,13.837,10.502c6.184,0.567,13.2-2.247,15.299-10.288
		C689.209,356.203,689.611,351.033,689.561,346.425z M482.418,155.384c1.651,0.7,3.245,1.4,4.856,2.056
		c7.203,2.932,14.411,5.855,21.619,8.773c4.308,1.745,8.644,3.423,12.918,5.244c1.094,0.466,1.516,0.173,1.897-0.765
		c0.779-1.907,1.59-3.803,2.384-5.703c0.583-1.393,0.563-1.411-0.81-1.969c-9.042-3.672-18.064-7.394-27.143-10.973
		c-1.327-0.522-1.187-1.129-0.817-2.038c1.465-3.608,2.986-7.194,4.402-10.821c0.363-0.931,0.739-0.899,1.523-0.565
		c3.787,1.615,7.597,3.177,11.401,4.75c4.438,1.834,8.887,3.641,13.312,5.507c0.86,0.363,1.191,0.197,1.479-0.684
		c0.687-2.101,1.41-4.197,2.266-6.233c0.457-1.084,0.11-1.531-0.837-1.91c-6.301-2.516-12.622-4.983-18.874-7.613
		c-2.132-0.897-4.467-1.431-6.321-2.862c1.215-3.119,2.378-6.105,3.542-9.093c0.604-1.555,0.684-1.601,2.225-0.979
		c3.393,1.37,6.789,2.73,10.164,4.144c5.344,2.237,10.684,4.485,15.993,6.798c1.108,0.483,1.508,0.101,1.849-0.862
		c0.716-2.014,1.357-4.068,2.274-5.987c0.571-1.197-0.021-1.543-0.839-1.883c-1.688-0.705-3.407-1.336-5.104-2.02
		c-7.283-2.932-14.563-5.867-21.841-8.81c-3.252-1.315-6.486-2.678-9.746-3.972c-1.694-0.673-1.857-0.556-2.512,1.049
		c-2.94,7.21-5.9,14.411-8.829,21.623C489.38,138.134,485.932,146.692,482.418,155.384z M300.727,159.618
		c-0.507-0.499-0.804-0.917-1.245-1.257c-2.596-2.003-5.148-4.062-7.723-6.09c-11.557-9.1-23.132-18.177-34.651-27.325
		c-1.089-0.863-1.92-0.96-3.07-0.314c-2.656,1.493-5.355,2.909-8.034,4.362c-1.799,0.975-1.808,0.981-1.596,3.014
		c0.643,6.177,1.313,12.353,1.94,18.531c0.458,4.501,0.776,9.018,1.31,13.509c0.651,5.482,1.228,10.973,1.735,16.47
		c0.201,2.163,0.575,4.31,0.895,6.638c3.491-1.747,6.685-3.356,9.889-4.94c0.988-0.489,1.198-1.24,1.037-2.272
		c-0.507-3.257-0.879-6.536-1.471-9.776c-0.23-1.26-0.047-1.942,1.137-2.57c5.921-3.142,11.818-6.33,17.666-9.604
		c1.091-0.611,1.685-0.494,2.578,0.287c2.413,2.105,4.972,4.042,7.398,6.133c0.984,0.847,1.781,1.105,2.99,0.387
		C294.452,163.049,297.474,161.434,300.727,159.618z M330.107,151.821c1.672-0.228,3.572-0.487,5.473-0.741
		c4.978-0.664,9.745-2.093,14.034-4.683c5.459-3.296,8.326-8.315,7.979-14.711c-0.275-5.042-1.56-9.97-2.818-14.87
		c-1.123-4.37-2.152-8.766-3.247-13.144c-0.853-3.414-1.781-6.809-2.592-10.232c-0.216-0.909-0.508-1.081-1.398-0.842
		c-2.88,0.774-5.783,1.465-8.683,2.164c-1.497,0.36-1.564,0.352-1.197,1.931c0.898,3.873,1.858,7.733,2.795,11.598
		c1.116,4.605,2.239,9.21,3.349,13.816c0.7,2.9,1.51,5.781,2.039,8.713c0.659,3.641-0.52,6.688-3.75,8.648
		c-2.856,1.732-6.034,2.652-9.386,2.612c-4.363-0.051-7.73-2.79-8.823-6.97c-1.064-4.068-2.14-8.134-3.175-12.209
		c-1.107-4.37-2.173-8.751-3.258-13.126c-0.664-2.67-1.355-5.334-1.979-8.014c-0.229-0.983-0.637-1.158-1.618-0.892
		c-3.024,0.821-6.074,1.548-9.131,2.235c-0.908,0.204-1.127,0.625-0.919,1.446c0.676,2.667,1.344,5.337,2.007,8.007
		c1.107,4.455,2.287,8.894,3.292,13.372c1.057,4.706,2.31,9.354,3.956,13.88c0.747,2.055,1.547,4.105,3.015,5.866
		C319.689,150.022,324.492,151.509,330.107,151.821z M441.892,91.271c0.416,2.962,0.76,5.604,1.164,8.235
		c0.813,5.296,1.684,10.583,2.486,15.881c0.712,4.693,1.343,9.399,2.054,14.092c0.837,5.525,1.751,11.039,2.563,16.567
		c0.128,0.871,0.351,1.377,1.259,1.584c3.429,0.778,6.849,1.603,10.268,2.427c0.861,0.207,1.453-0.081,1.914-0.816
		c0.606-0.968,1.258-1.907,1.891-2.859c9.279-13.977,18.564-27.951,27.822-41.943c0.341-0.516,0.858-1.033,0.83-1.834
		c-3.531-0.761-6.968-1.484-10.394-2.25c-1.245-0.277-1.884,0.211-2.563,1.279c-6.577,10.365-13.23,20.681-19.855,31.017
		c-0.424,0.662-0.762,1.384-1.655,1.911c-0.558-4.258-1.069-8.265-1.612-12.267c-0.792-5.842-1.608-11.68-2.411-17.52
		c-0.418-3.035-0.851-6.068-1.232-9.108c-0.148-1.184-0.597-1.887-1.893-2.134C449.076,92.874,445.651,92.081,441.892,91.271z
		 M244.854,192.896c-4.356-5.556-8.558-10.891-12.724-16.25c-0.641-0.823-1.258-1.617-1.315-2.831
		c-0.533-11.496-1.146-22.989-1.748-34.483c-0.021-0.405,0.221-0.95-0.547-1.189c-2.953,2.27-5.898,4.679-9.007,6.854
		c-1.351,0.945-1.685,1.968-1.505,3.469c0.573,4.796,1.109,9.598,1.604,14.403c0.272,2.642,0.379,5.299,0.932,8.228
		c-3.927-1.394-7.45-2.627-10.961-3.896c-3.733-1.349-7.451-2.744-11.188-4.086c-1.131-0.406-2.098-0.323-3.129,0.609
		c-2.43,2.202-5.03,4.217-7.562,6.305c-0.234,0.192-0.508,0.343-0.725,0.554c-0.474,0.458-0.601,0.902,0.154,1.214
		c0.284,0.117,0.566,0.239,0.857,0.327c3.438,1.035,6.884,2.043,10.314,3.1c5.768,1.777,11.507,3.647,17.292,5.361
		c5.95,1.763,5.957,1.71,9.823,6.656c3.054,3.906,6.143,7.781,9.206,11.679c0.539,0.685,0.898,0.994,1.807,0.268
		C239.099,197.053,241.898,195.084,244.854,192.896z M657.063,238.333c-12.572,7.901-24.99,15.705-37.46,23.54
		c1.943,2.999,3.718,5.752,5.509,8.495c1.029,1.576,1.056,1.591,2.744,0.526c8.636-5.447,17.26-10.911,25.893-16.361
		c3.148-1.987,6.31-3.953,9.561-5.989c0.563,0.867,1.066,1.621,1.548,2.39c2.223,3.558,4.428,7.127,6.672,10.671
		c0.376,0.594,0.709,1.502,1.749,0.841c2.06-1.31,4.132-2.596,6.181-3.919c0.41-0.266,0.612-0.682,0.304-1.188
		c-0.239-0.392-0.449-0.801-0.693-1.188c-5.806-9.149-11.61-18.299-17.423-27.442c-1.842-2.897-3.702-5.784-5.562-8.67
		c-0.374-0.579-0.701-1.224-1.598-0.612c-1.891,1.288-3.816,2.523-5.729,3.779c-0.713,0.468-0.793,1.021-0.318,1.734
		c0.973,1.461,1.908,2.946,2.857,4.423C653.188,232.307,655.08,235.25,657.063,238.333z M97.602,348.974
		c0.404-2.636,0.789-5.133,1.168-7.629c0.403-2.651,0.793-5.304,1.212-7.951c0.143-0.901-0.063-1.516-1.084-1.58
		c-2.152-0.135-4.219-0.756-6.334-1.101c-1.061-0.174-1.553,0.209-1.659,1.293c-0.379,3.89-1.214,7.713-1.794,11.571
		c-1.163,7.723-2.352,15.439-3.675,23.135c-0.479,2.792-0.785,5.612-1.223,8.412c-0.15,0.963,0.106,1.479,1.125,1.521
		c2.153,0.087,4.261,0.473,6.373,0.879c1.449,0.278,1.502,0.198,1.73-1.315c0.683-4.542,1.352-9.088,2-13.636
		c0.223-1.561,0.196-1.635,1.837-1.444c1.671,0.193,3.321,0.573,4.986,0.82c5,0.742,10.008,1.426,15.002,2.196
		c4.844,0.747,9.663,1.649,14.514,2.332c2.05,0.288,4.102,0.533,6.127,0.965c0.959,0.203,1.569,0.061,1.727-1.143
		c0.406-3.11,0.918-6.207,1.437-9.301c0.151-0.904-0.162-1.283-1.034-1.35c-1.375-0.105-2.731-0.314-4.093-0.566
		c-2.935-0.543-5.901-0.92-8.855-1.362c-2.726-0.408-5.454-0.805-8.177-1.221c-3.406-0.521-6.823-0.982-10.21-1.605
		C105.091,350.229,101.412,349.965,97.602,348.974z M641.638,202.664c-0.326,0.233-0.514,0.354-0.687,0.493
		c-11.356,9.223-22.711,18.449-34.068,27.674c-1.832,1.487-3.686,2.951-5.492,4.47c-0.399,0.335-0.982,0.65-0.313,1.446
		c2.344,2.788,4.582,5.664,6.802,8.434c1.013-0.195,1.504-0.849,2.083-1.318c11.487-9.309,22.952-18.645,34.426-27.972
		c1.357-1.104,2.736-2.186,4.091-3.296c0.546-0.448,1.068-0.871,0.351-1.679C646.41,208.196,644.042,205.431,641.638,202.664z
		 M433.35,94.771c0.028,0.002,0.057,0.005,0.085,0.007c0.051-0.843,0.085-1.686,0.157-2.526c0.067-0.804-0.315-1.105-1.074-1.104
		c-3.158,0.011-6.264-0.563-9.395-0.853c-0.839-0.078-1.459-0.077-1.54,1.073c-0.207,2.982-0.56,5.955-0.798,8.938
		c-0.434,5.428-0.804,10.862-1.241,16.291c-0.659,8.18-1.356,16.355-2.03,24.534c-0.147,1.795-0.125,1.757,1.741,2.095
		c2.732,0.495,5.524,0.251,8.253,0.7c1.281,0.211,1.513-0.345,1.612-1.486c0.729-8.403,1.547-16.8,2.299-25.201
		C432.088,109.752,432.707,102.262,433.35,94.771z M660.855,378.254c0.141,3.237,0.268,6.521,0.436,9.804
		c0.083,1.626,0.117,1.614,1.753,1.613c3.078,0,6.099-0.613,9.153-0.861c6.263-0.51,12.52-1.066,18.776-1.622
		c7.403-0.656,14.803-1.353,22.208-1.98c1.053-0.09,1.484-0.358,1.364-1.51c-0.315-3.047-0.537-6.104-0.755-9.161
		c-0.055-0.763-0.288-1.101-1.112-1.023c-3.509,0.332-7.022,0.611-10.531,0.931c-4.73,0.43-9.457,0.905-14.188,1.311
		c-5.191,0.444-10.393,0.776-15.581,1.264c-2.975,0.279-5.938,0.674-8.93,0.771C662.615,377.815,661.757,377.813,660.855,378.254z
		 M645.475,199.858c2.2,2.765,4.256,5.294,6.238,7.877c0.542,0.706,1.04,0.862,1.68,0.299c2.209-1.951,4.727-3.537,6.838-5.688
		c-1.954-2.599-3.878-5.137-5.775-7.694c-0.596-0.802-1.125-1.007-1.999-0.29C650.236,196.186,647.947,197.923,645.475,199.858z
		 M422.422,85.577c3.394,0.296,6.664,0.589,9.938,0.859c0.606,0.051,1.228,0.104,1.304-0.823c0.223-2.666,0.479-5.331,0.753-7.992
		c0.097-0.934-0.338-1.197-1.184-1.21c-2.909-0.041-5.813-0.193-8.697-0.594c-0.871-0.12-1.251,0.175-1.345,1.063
		C422.896,79.684,422.372,82.466,422.422,85.577z M723.921,372.973c-0.001,0.014-0.002,0.025-0.002,0.039
		c-1.447,0.087-2.896,0.183-4.343,0.261c-0.782,0.043-1.296,0.265-1.208,1.221c0.276,3.039,0.514,6.082,0.753,9.126
		c0.052,0.668,0.355,0.93,1.032,0.862c2.505-0.245,5.021-0.407,7.519-0.714c1.621-0.199,1.638-0.29,1.489-1.842
		c-0.194-2.05-0.506-4.091-0.647-6.144c-0.203-2.95-0.156-2.95-2.991-2.813C724.99,372.995,724.455,372.973,723.921,372.973z
		 M326.923,83.958c0.551,2.338,1.163,4.605,1.59,6.908c0.198,1.068,0.556,1.492,1.636,1.229c2.44-0.599,4.873-1.245,7.337-1.722
		c1.111-0.214,1.399-0.64,1.111-1.67c-0.613-2.2-1.202-4.407-1.778-6.617c-0.164-0.626-0.43-0.933-1.129-0.703
		C332.808,82.323,329.775,82.757,326.923,83.958z M313.119,96.458c2.703-0.614,5.356-1.227,8.014-1.819
		c1.047-0.233,1.333-0.8,1.042-1.833c-0.556-1.979-0.978-3.996-1.556-5.969c-0.416-1.419-0.617-1.513-2.141-1.145
		c-2.146,0.519-4.252,1.231-6.417,1.649c-1.149,0.223-1.193,0.833-0.948,1.6C311.896,91.398,312.116,94.01,313.119,96.458z"/>
	<path fill-rule="evenodd" clip-rule="evenodd" fill="#FFFEFE" d="M146.659,613.689c-2.167-1.85-3.665-4.262-5.408-6.464
		c-7.26-9.169-14.12-18.633-20.408-28.486c-3.384-5.303-3.186-3.816-0.112-8.829c5.345-8.722,12.755-15.514,20.744-21.732
		c4.885-3.803,9.986-7.248,15.738-9.645c4.452-1.859,9.008-3.321,13.726-4.378c7.52-1.686,15.121-2.687,22.807-2.529
		c15.045,0.308,28.157,5.383,39.047,16.054c8.779,8.602,15.68,18.455,21.115,29.437c2.507,5.066,5.276,9.999,6.844,15.474
		c0.506,1.766,1.001,3.535,1.415,5.325c0.501,2.173,0.465,2.187,2.37,0.857c3.248-2.269,6.417-4.635,9.907-6.56
		c7.14-3.937,14.813-5.133,22.828-4.82c5.704,0.222,11.187,1.409,16.347,3.879c0.491-0.765,0.615-1.524,0.724-2.282
		c1.362-9.489,3.559-18.805,6.024-28.054c2.346-8.797,5.063-17.48,9.089-25.69c6.213-12.671,14.194-24.053,24.759-33.487
		c6.107-5.454,13.221-9.189,20.964-11.839c7.599-2.599,15.396-4.014,23.385-4.441c5.17-0.276,10.233,0.641,15.294,1.564
		c4.678,0.853,9.207,2.162,13.668,3.806c10.315,3.804,19.013,9.88,26.17,18.198c9.879,11.481,17.386,24.325,22.435,38.625
		c2.602,7.37,4.564,14.904,6.405,22.489c1.249,5.14,2.226,10.325,3.181,15.522c0.208,1.13,0.313,2.277,0.449,3.42
		c0.091,0.758,0.063,1.544,0.674,2.204c2.808-1.141,5.632-2.248,8.64-2.902c4.081-0.886,8.188-1.12,12.339-1.036
		c9.363,0.188,17.578,3.535,25.02,9.036c1.286,0.952,2.596,1.869,3.913,2.775c1.135,0.78,1.32,0.738,1.682-0.578
		c1.503-5.47,3.61-10.72,5.711-15.975c6.131-15.336,15.586-28.297,28.177-38.908c6.336-5.339,13.74-8.659,21.862-10.521
		c7.588-1.738,15.164-1.934,22.854-1.072c3.507,0.395,7.033,0.712,10.479,1.416c9.116,1.86,17.783,4.92,25.658,10.035
		c7.121,4.625,13.983,9.555,19.922,15.671c3.631,3.739,6.9,7.744,9.36,12.383c0.529,0.999,0.597,1.706,0.071,2.729
		c-1.193,2.323-2.838,4.337-4.256,6.499c-7.249,11.059-15.03,21.731-23.516,31.885c-0.295,0.35-0.511,0.772-0.998,0.903
		c-1.751-0.262-3.41-0.864-5.065-1.444c-4.207-1.471-7.992-3.739-11.598-6.322c-2.913-2.087-5.776-4.246-8.887-6.041
		c-5.035-2.904-10.53-4.014-16.282-4.069c-5.568-0.056-11.011,0.571-16.076,3.105c-3.352,1.677-6.399,3.828-9.389,6.07
		c-7.834,5.875-16.426,9.605-26.42,9.676c-6.191,0.042-12.229-0.531-18.02-2.893c-4.272-1.741-8.146-4.154-11.796-6.928
		c-6.825-5.188-14.097-9.08-23.009-9.022c-5.643,0.035-11.141,0.443-16.341,2.938c-3.464,1.659-6.592,3.806-9.624,6.105
		c-8.623,6.537-18.149,10.181-29.143,9.829c-6.219-0.199-12.16-1.276-17.786-3.921c-4.23-1.987-8.017-4.715-11.733-7.494
		c-6.182-4.624-12.943-7.384-20.763-7.457c-5.892-0.056-11.634,0.498-16.978,3.186c-3.692,1.856-7,4.324-10.316,6.764
		c-7.595,5.591-15.974,8.808-25.522,8.905c-6.916,0.07-13.576-0.847-19.883-3.819c-3.885-1.83-7.416-4.229-10.814-6.806
		c-6.43-4.873-13.378-8.161-21.659-8.221c-5.893-0.042-11.626,0.461-17,3.088c-3.301,1.61-6.298,3.718-9.213,5.924
		c-8.018,6.061-16.811,9.782-27.06,9.847c-7.651,0.047-14.922-1.205-21.699-4.845c-3.502-1.881-6.737-4.191-9.898-6.575
		c-6.169-4.649-12.95-7.339-20.761-7.454c-6.625-0.098-12.986,0.771-18.796,4.154c-3.427,1.995-6.546,4.459-9.802,6.716
		C157.613,609.977,152.455,612.549,146.659,613.689z"/>
	<path fill-rule="evenodd" clip-rule="evenodd" fill="#11117B" d="M146.659,613.689c5.795-1.141,10.954-3.713,15.765-7.047
		c3.256-2.257,6.375-4.721,9.802-6.716c5.811-3.383,12.172-4.252,18.796-4.154c7.811,0.115,14.592,2.805,20.761,7.454
		c3.161,2.384,6.396,4.694,9.898,6.575c6.777,3.64,14.048,4.892,21.699,4.845c10.249-0.064,19.042-3.786,27.06-9.847
		c2.915-2.206,5.913-4.313,9.213-5.924c5.374-2.627,11.108-3.13,17-3.088c8.281,0.06,15.229,3.348,21.659,8.221
		c3.398,2.576,6.929,4.976,10.814,6.806c6.307,2.973,12.967,3.89,19.883,3.819c9.548-0.098,17.927-3.314,25.522-8.905
		c3.316-2.439,6.625-4.907,10.316-6.764c5.343-2.688,11.086-3.241,16.978-3.186c7.819,0.073,14.581,2.833,20.763,7.457
		c3.717,2.779,7.503,5.507,11.733,7.494c5.626,2.645,11.567,3.722,17.786,3.921c10.993,0.352,20.52-3.292,29.143-9.829
		c3.032-2.3,6.16-4.446,9.624-6.105c5.2-2.494,10.698-2.902,16.341-2.938c8.912-0.058,16.184,3.835,23.009,9.022
		c3.649,2.773,7.523,5.187,11.796,6.928c5.791,2.361,11.828,2.935,18.02,2.893c9.994-0.07,18.586-3.801,26.42-9.676
		c2.989-2.242,6.037-4.394,9.389-6.07c5.065-2.534,10.508-3.161,16.076-3.105c5.752,0.056,11.247,1.165,16.282,4.069
		c3.11,1.795,5.974,3.954,8.887,6.041c3.605,2.583,7.391,4.852,11.598,6.322c1.655,0.58,3.314,1.183,5.065,1.444
		c0.042,0.632-0.48,0.933-0.814,1.32c-6.879,8.004-14.13,15.662-21.64,23.078c-0.433,0.426-0.939,0.778-1.412,1.166
		c-0.388-0.239-0.753-0.523-1.164-0.709c-4.308-1.928-8.86-2.889-13.534-3.308c-6.257-0.559-12.372,0.119-18.366,2.058
		c-4.858,1.573-9.14,4.174-13.19,7.18c-6.063,4.497-12.308,8.521-20.081,9.355c-5.318,0.571-10.544,0.316-15.715-1.147
		c-4.485-1.27-8.366-3.651-12.044-6.396c-7.432-5.547-15.247-10.086-24.791-10.941c-8.336-0.746-16.337,0.142-23.972,3.722
		c-4.1,1.921-7.706,4.602-11.366,7.209c-3.482,2.48-7.047,4.784-11.179,6.122c-4.902,1.589-9.92,2.01-14.992,1.596
		c-3.424-0.281-6.784-1.004-10.012-2.349c-3.847-1.604-7.17-4.001-10.527-6.38c-3.792-2.687-7.606-5.316-11.961-7.093
		c-3.798-1.549-7.725-2.404-11.771-2.847c-6.492-0.711-12.832-0.047-19.059,1.925c-4.944,1.566-9.253,4.267-13.418,7.255
		c-3.467,2.49-6.874,5.084-10.807,6.823c-5.9,2.604-12.129,3.207-18.462,2.611c-3.108-0.292-6.183-0.975-9.122-2.182
		c-3.849-1.582-7.253-3.872-10.552-6.34c-7.081-5.297-14.677-9.26-23.702-10.08c-7.538-0.685-14.81,0.047-21.869,2.854
		c-4.878,1.94-9.055,5.009-13.271,8.017c-3.549,2.532-7.182,4.854-11.386,6.219c-4.828,1.566-9.771,1.972-14.765,1.575
		c-3.427-0.272-6.789-0.99-10.023-2.319c-4.36-1.792-8.108-4.523-11.826-7.306c-7.82-5.851-16.521-9.167-26.335-9.342
		c-4.856-0.087-9.656,0.484-14.304,1.885c-1.935,0.585-3.997,1.043-5.62,2.424c-2.951-2.305-5.402-5.129-8.03-7.761
		c-5.019-5.023-9.754-10.316-14.472-15.622C147.608,615.256,146.805,614.685,146.659,613.689z M530.885,618.612
		c-0.317,0.115-0.422,0.376-0.413,0.675c0.008,0.227,0.137,0.441,0.39,0.399c0.35-0.06,0.396-0.372,0.388-0.662
		C531.242,618.807,531.165,618.607,530.885,618.612z"/>
	<path fill-rule="evenodd" clip-rule="evenodd" fill="#11117A" d="M256.626,699.127c-5.525-2.428-10.772-5.387-16.049-8.298
		c-7.833-4.324-15.427-9.05-22.993-13.799c-6.142-3.854-11.919-8.294-17.648-12.758c-7.175-5.587-14.438-11.071-21.118-17.268
		c-0.556-0.517-1.244-0.908-1.54-1.664c2.562-1.09,5.29-1.446,8.018-1.719c6.662-0.658,13.119-0.011,19.273,2.915
		c3.544,1.684,6.652,3.992,9.8,6.265c4.408,3.184,9.009,6.046,14.241,7.658c5.778,1.783,11.739,2.351,17.746,1.797
		c4.576-0.421,9.042-1.404,13.307-3.29c4.228-1.865,8.006-4.412,11.674-7.14c5.785-4.302,11.917-7.631,19.303-8.231
		c6.845-0.557,13.443,0.056,19.706,3.099c3.869,1.881,7.25,4.495,10.707,6.989c4.817,3.479,10.004,6.188,15.788,7.557
		c4.8,1.134,9.718,1.475,14.64,1.048c3.661-0.319,7.27-0.993,10.768-2.211c4.883-1.704,9.214-4.366,13.329-7.433
		c6.057-4.512,12.357-8.387,20.193-9.021c6.838-0.552,13.432-0.053,19.723,2.974c3.465,1.665,6.554,3.885,9.623,6.134
		c4.398,3.219,8.998,6.076,14.219,7.702c5.845,1.816,11.888,2.412,17.97,1.813c4.488-0.443,8.888-1.387,13.082-3.25
		c4.718-2.094,8.877-5.026,12.981-8.057c5.521-4.078,11.509-6.863,18.46-7.386c7.33-0.55,14.344,0.281,20.872,3.965
		c3.666,2.069,6.94,4.692,10.399,7.054c3.676,2.508,7.561,4.605,11.815,5.91c5.404,1.654,10.968,2.222,16.601,1.843
		c6.251-0.416,12.204-1.94,17.726-5.013c3.877-2.16,7.371-4.869,10.991-7.401c3.919-2.742,8.124-4.927,12.843-5.797
		c6.807-1.252,13.585-1.057,20.222,1.151c-1.473,1.954-3.392,3.484-5.218,5.047c-10.042,8.582-20.494,16.636-31.394,24.11
		c-11.083,7.601-22.647,14.388-34.525,20.65c-2.696,1.423-5.466,2.707-8.201,4.054c-4.977-2.667-9.437-6.125-14.09-9.281
		c-7.272-4.934-15.322-7.098-24.02-7.157c-6.363-0.045-12.501,1.094-18.301,3.745c-4.529,2.069-8.532,5.009-12.516,7.962
		c-5.648,4.187-11.868,6.823-18.978,7.255c-4.481,0.272-8.856-0.115-13.2-1.225c-4.528-1.159-8.419-3.521-12.108-6.254
		c-7.114-5.272-14.5-9.854-23.569-11.001c-8.226-1.043-16.196-0.372-23.902,2.791c-4.915,2.019-9.159,5.131-13.388,8.257
		c-5.646,4.176-11.808,6.949-18.925,7.4c-5.652,0.361-11.146-0.137-16.472-2.192c-3.89-1.502-7.252-3.851-10.571-6.289
		c-6.522-4.787-13.387-8.693-21.622-9.856c-9.941-1.404-19.378-0.271-28.25,4.577C267.964,691.182,262.792,695.922,256.626,699.127z
		"/>
	<path fill-rule="evenodd" clip-rule="evenodd" fill="#FEFEFC" d="M725.195,465.268c-0.47,4.424-1.515,8.505-2.56,12.576
		c-0.683,2.658-0.593,2.286-2.948,1.91c-5.979-0.957-11.964-1.861-17.956-2.729c-6.978-1.015-13.924-2.237-20.893-3.308
		c-5-0.771-10.021-1.406-15.022-2.166c-4.925-0.747-9.832-1.604-14.756-2.362c-4.923-0.755-9.856-1.455-14.787-2.164
		c-2.504-0.358-4.999-0.779-7.504-1.141c-6.977-1.013-13.924-2.237-20.895-3.299c-6.97-1.063-13.96-1.993-20.932-3.046
		c-5.002-0.755-9.982-1.652-14.983-2.417c-4.924-0.751-9.865-1.389-14.79-2.129c-4.852-0.729-9.69-1.539-14.538-2.283
		c-5.076-0.78-10.153-1.547-15.238-2.267c-2.353-0.334-4.692-0.751-7.046-1.083c-6.98-0.983-13.926-2.213-20.894-3.285
		c-4.924-0.76-9.867-1.392-14.794-2.138c-5.001-0.758-9.99-1.6-14.987-2.375c-2.878-0.447-5.758-0.891-8.648-1.238
		c-2.36-0.285-4.685-0.779-7.046-1.081c-5.015-0.643-9.987-1.608-14.989-2.372c-5-0.763-10.02-1.404-15.021-2.164
		c-4.925-0.747-9.836-1.58-14.755-2.366c-2.497-0.396-4.994-0.815-7.502-1.135c-0.979-0.126-2.008-0.128-2.983,0.021
		c-5.001,0.76-9.986,1.619-14.987,2.379c-5,0.76-10.015,1.429-15.019,2.173c-2.957,0.439-5.909,0.915-8.853,1.432
		c-2.341,0.412-4.703,0.678-7.049,1.061c-7.033,1.15-14.109,2.043-21.158,3.1c-5.002,0.751-9.983,1.646-14.983,2.405
		c-5.001,0.763-10.02,1.404-15.022,2.155c-4.927,0.74-9.84,1.563-14.764,2.324c-2.954,0.456-5.908,0.926-8.875,1.28
		c-2.514,0.302-4.991,0.815-7.504,1.137c-4.939,0.629-9.835,1.59-14.759,2.339c-5.001,0.76-10.022,1.394-15.024,2.149
		c-5.001,0.753-9.986,1.617-14.987,2.379c-5.001,0.76-10.014,1.444-15.018,2.185c-2.502,0.369-5.02,0.699-7.496,1.167
		c-2.868,0.543-5.763,0.87-8.635,1.354c-7.028,1.179-14.108,2.04-21.157,3.097c-5.002,0.751-9.982,1.65-14.983,2.41
		s-10.021,1.396-15.023,2.149c-5.002,0.755-9.987,1.619-14.988,2.381c-5,0.762-10.011,1.46-15.018,2.178
		c-2.352,0.337-4.693,0.742-7.047,1.076c-7.056,1.011-14.079,2.242-21.125,3.311c-1.971,0.299-3.971,0.392-5.909,0.903
		c-0.832,0.222-1.208-0.056-1.397-0.964c-0.817-3.895-1.735-7.771-2.602-11.656c-0.374-1.675-0.3-1.781,1.354-2.069
		c6.119-1.061,12.276-1.863,18.426-2.711c5.164-0.712,10.306-1.578,15.46-2.347c3.033-0.451,6.067-0.905,9.115-1.247
		c2.44-0.272,4.84-0.779,7.281-1.072c5.173-0.62,10.307-1.56,15.464-2.314c5.233-0.765,10.476-1.469,15.716-2.188
		c2.43-0.335,4.854-0.725,7.279-1.077c6.297-0.912,12.59-1.841,18.892-2.723c7.362-1.03,14.697-2.262,22.054-3.34
		c5.157-0.756,10.335-1.365,15.493-2.111c5.235-0.758,10.452-1.635,15.685-2.403c5.157-0.756,10.327-1.432,15.487-2.16
		c2.885-0.405,5.765-0.84,8.646-1.273c3.031-0.459,6.06-0.948,9.092-1.398c3.64-0.54,7.281-1.061,10.924-1.575
		c5.237-0.739,10.473-1.486,15.715-2.186c2.432-0.326,4.843-0.767,7.281-1.072c5.247-0.654,10.452-1.626,15.685-2.393
		c5.157-0.754,10.333-1.383,15.493-2.125c5.159-0.739,10.306-1.57,15.463-2.332c3.108-0.459,6.22-0.897,9.339-1.285
		c2.512-0.313,4.997-0.784,7.511-1.097c5.17-0.643,10.299-1.619,15.46-2.339c4.48-0.625,8.96-1.236,13.428-1.956
		c2.819-0.454,5.659-0.284,8.464,0.348c2.622,0.587,5.311,0.749,7.961,1.191c5.137,0.864,10.329,1.396,15.486,2.146
		c5.233,0.763,10.447,1.662,15.68,2.429c5.158,0.755,10.332,1.396,15.492,2.126c3.036,0.43,6.06,0.944,9.092,1.407
		c2.728,0.418,5.457,0.826,8.188,1.227c5.915,0.866,11.828,1.741,17.746,2.583c5.16,0.735,10.328,1.427,15.491,2.136
		c2.431,0.335,4.854,0.723,7.279,1.077c6.296,0.919,12.587,1.86,18.893,2.72c5.164,0.702,10.298,1.624,15.456,2.379
		c5.156,0.754,10.33,1.398,15.489,2.132c3.036,0.429,6.058,0.959,9.091,1.408c3.109,0.459,6.219,0.933,9.34,1.289
		c2.517,0.288,4.993,0.798,7.509,1.104c5.249,0.638,10.455,1.612,15.688,2.377c5.158,0.751,10.333,1.38,15.491,2.129
		c5.234,0.758,10.452,1.621,15.687,2.391c5.156,0.755,10.318,1.481,15.486,2.159c2.434,0.317,4.843,0.769,7.281,1.072
		c5.247,0.649,10.454,1.615,15.688,2.379c5.157,0.754,10.332,1.385,15.49,2.134c5.233,0.76,10.455,1.612,15.686,2.395
		c2.957,0.441,5.926,0.802,8.884,1.229C721.098,464.586,723.057,464.925,725.195,465.268z"/>
	<path fill-rule="evenodd" clip-rule="evenodd" fill="#12117A" d="M534.659,703.241c-2.192,1.586-4.789,2.314-7.23,3.356
		c-6.116,2.609-12.344,4.951-18.641,7.086c-5.356,1.816-10.757,3.496-16.201,5.049c-5.374,1.533-10.773,2.962-16.213,4.211
		c-5.071,1.165-10.175,2.197-15.299,3.133c-4.827,0.879-9.681,1.572-14.519,2.368c-2.723,0.447-5.463,0.809-8.207,1.09
		c-12.443,1.28-24.912,2.314-37.426,2.25c-7.666-0.039-15.334-0.27-22.991-0.937c-4.736-0.412-9.476-0.833-14.203-1.307
		c-5.486-0.55-10.942-1.43-16.396-2.258c-4.543-0.688-9.087-1.413-13.594-2.306c-4.878-0.966-9.752-1.956-14.575-3.197
		c-4.89-1.26-9.758-2.587-14.607-3.998c-5.213-1.516-10.37-3.21-15.487-5.009c-6.85-2.406-13.614-5.044-20.262-7.969
		c-1.011-0.445-2.187-0.636-2.894-1.632c2.311-1.208,4.315-2.864,6.406-4.389c5-3.646,10.335-6.448,16.579-7.306
		c6.653-0.915,13.119-0.457,19.427,2.005c4.325,1.686,8.036,4.366,11.664,7.124c7.456,5.664,15.732,9,25.108,9.454
		c6.582,0.319,12.979-0.589,19.126-3.062c4.499-1.81,8.442-4.527,12.318-7.376c5.329-3.919,10.915-7.227,17.669-8.14
		c6.662-0.901,13.124-0.467,19.431,1.975c4.327,1.677,8.028,4.37,11.672,7.119c7.53,5.678,15.87,9.083,25.348,9.495
		c5.64,0.243,11.152-0.445,16.537-2.187c4.93-1.593,9.262-4.263,13.407-7.281c5.698-4.149,11.458-8.053,18.734-9.063
		c8.868-1.231,17.264-0.288,24.931,4.617C527.801,698.416,531.201,700.873,534.659,703.241z"/>
	<path fill-rule="evenodd" clip-rule="evenodd" fill="#FAFAFC" d="M623.298,645.266c-6.637-2.208-13.415-2.403-20.222-1.151
		c-4.719,0.87-8.924,3.055-12.843,5.797c-3.62,2.532-7.114,5.241-10.991,7.401c-5.521,3.072-11.475,4.597-17.726,5.013
		c-5.633,0.379-11.196-0.188-16.601-1.843c-4.255-1.305-8.14-3.402-11.815-5.91c-3.459-2.361-6.733-4.984-10.399-7.054
		c-6.528-3.684-13.542-4.515-20.872-3.965c-6.951,0.522-12.938,3.308-18.46,7.386c-4.104,3.03-8.264,5.963-12.981,8.057
		c-4.194,1.863-8.594,2.807-13.082,3.25c-6.082,0.6-12.125,0.004-17.97-1.813c-5.221-1.626-9.82-4.483-14.219-7.702
		c-3.069-2.249-6.158-4.469-9.623-6.134c-6.291-3.026-12.885-3.525-19.723-2.974c-7.836,0.634-14.137,4.509-20.193,9.021
		c-4.115,3.066-8.446,5.729-13.329,7.433c-3.498,1.218-7.107,1.892-10.768,2.211c-4.921,0.427-9.839,0.086-14.64-1.048
		c-5.784-1.369-10.971-4.078-15.788-7.557c-3.456-2.494-6.837-5.108-10.707-6.989c-6.262-3.043-12.86-3.655-19.706-3.099
		c-7.386,0.601-13.518,3.93-19.303,8.231c-3.668,2.728-7.446,5.274-11.674,7.14c-4.265,1.886-8.731,2.869-13.307,3.29
		c-6.007,0.554-11.968-0.014-17.746-1.797c-5.231-1.612-9.833-4.475-14.241-7.658c-3.148-2.272-6.256-4.581-9.8-6.265
		c-6.154-2.926-12.611-3.573-19.273-2.915c-2.728,0.272-5.456,0.629-8.018,1.719c-2.443-1.741-4.51-3.89-6.577-6.038
		c1.625-1.381,3.686-1.839,5.621-2.424c4.647-1.4,9.448-1.972,14.304-1.885c9.813,0.175,18.515,3.491,26.335,9.342
		c3.718,2.782,7.466,5.514,11.826,7.306c3.234,1.329,6.596,2.047,10.023,2.319c4.994,0.396,9.937-0.009,14.765-1.575
		c4.205-1.364,7.837-3.687,11.386-6.219c4.217-3.008,8.394-6.076,13.271-8.017c7.059-2.807,14.332-3.538,21.869-2.854
		c9.025,0.82,16.621,4.783,23.702,10.08c3.299,2.468,6.703,4.758,10.552,6.34c2.939,1.207,6.014,1.89,9.122,2.182
		c6.333,0.596,12.562-0.007,18.462-2.611c3.934-1.739,7.34-4.333,10.807-6.823c4.165-2.988,8.474-5.688,13.418-7.255
		c6.227-1.972,12.567-2.636,19.059-1.925c4.047,0.442,7.974,1.298,11.771,2.847c4.354,1.776,8.169,4.406,11.961,7.093
		c3.357,2.379,6.681,4.776,10.527,6.38c3.228,1.345,6.588,2.067,10.012,2.349c5.072,0.414,10.09-0.007,14.992-1.596
		c4.132-1.338,7.696-3.642,11.179-6.122c3.66-2.607,7.267-5.288,11.366-7.209c7.635-3.58,15.636-4.468,23.972-3.722
		c9.544,0.855,17.359,5.395,24.791,10.941c3.678,2.744,7.559,5.126,12.044,6.396c5.171,1.464,10.396,1.719,15.715,1.147
		c7.773-0.835,14.019-4.858,20.081-9.355c4.051-3.006,8.332-5.606,13.19-7.18c5.994-1.938,12.109-2.616,18.366-2.058
		c4.674,0.419,9.227,1.38,13.534,3.308c0.411,0.186,0.776,0.47,1.164,0.709C627.777,641.322,625.684,643.451,623.298,645.266z"/>
	<path fill-rule="evenodd" clip-rule="evenodd" fill="#FAFAFC" d="M534.659,703.241c-3.458-2.368-6.858-4.825-10.388-7.082
		c-7.667-4.905-16.063-5.849-24.931-4.617c-7.276,1.011-13.036,4.914-18.734,9.063c-4.146,3.019-8.478,5.688-13.407,7.281
		c-5.385,1.741-10.897,2.43-16.537,2.187c-9.478-0.412-17.817-3.817-25.348-9.495c-3.644-2.749-7.345-5.442-11.672-7.119
		c-6.308-2.441-12.769-2.876-19.431-1.975c-6.754,0.913-12.34,4.221-17.669,8.14c-3.875,2.849-7.819,5.566-12.318,7.376
		c-6.147,2.473-12.545,3.381-19.126,3.062c-9.376-0.454-17.652-3.79-25.108-9.454c-3.628-2.758-7.339-5.438-11.664-7.124
		c-6.308-2.462-12.773-2.92-19.427-2.005c-6.244,0.857-11.579,3.659-16.579,7.306c-2.091,1.524-4.096,3.181-6.406,4.389
		c-3.048-0.698-5.667-2.389-8.463-3.669c-0.275-0.124-0.549-0.25-0.824-0.377c6.165-3.205,11.338-7.945,17.422-11.269
		c8.872-4.849,18.309-5.981,28.25-4.577c8.235,1.163,15.1,5.069,21.622,9.856c3.319,2.438,6.681,4.787,10.571,6.289
		c5.326,2.056,10.82,2.554,16.472,2.192c7.118-0.451,13.279-3.225,18.925-7.4c4.229-3.126,8.473-6.238,13.388-8.257
		c7.706-3.163,15.676-3.834,23.902-2.791c9.069,1.147,16.455,5.729,23.569,11.001c3.689,2.733,7.58,5.095,12.108,6.254
		c4.344,1.109,8.719,1.497,13.2,1.225c7.109-0.432,13.329-3.068,18.978-7.255c3.983-2.953,7.986-5.893,12.516-7.962
		c5.8-2.651,11.938-3.79,18.301-3.745c8.697,0.06,16.747,2.224,24.02,7.157c4.653,3.156,9.113,6.614,14.09,9.281
		C540.854,700.485,537.917,702.225,534.659,703.241z"/>
	<path fill-rule="evenodd" clip-rule="evenodd" fill="#FEFDFB" d="M421.849,330.236c7.274,5.944,7.922,13.56,6.594,21.733
		c-0.509,3.137-1.826,5.942-3.56,8.617c-4.909,7.573-15.385,6.582-19.937-0.089c-1.398-2.051-2.429-4.244-2.95-6.67
		c-1.248-5.811-1.233-11.523,1.067-17.137c1.044-2.548,2.737-4.534,4.718-6.288c-0.074-0.222-0.078-0.42-0.174-0.488
		c-3.804-2.76-5.007-6.79-5.347-11.173c-0.288-3.708,0.061-7.361,1.821-10.737c1.293-2.479,3.021-4.618,5.555-5.89
		c5.346-2.682,12.441-0.926,15.674,5.256c1.927,3.685,2.051,7.613,2,11.633c-0.043,3.351-0.94,6.324-3.037,8.94
		C423.607,328.775,422.851,329.511,421.849,330.236z M420.933,347.282c0.113-2.837,0.089-5.661-1.151-8.307
		c-0.912-1.943-2.477-3.133-4.605-3.271c-2.037-0.133-3.438,1.097-4.412,2.763c-0.734,1.259-1.225,2.627-1.418,4.093
		c-0.466,3.544-0.455,7.073,1.16,10.335c1.232,2.492,3.514,4.307,6.748,2.555c1.137-0.616,1.959-1.627,2.596-2.805
		C420.766,350.949,420.742,349.108,420.933,347.282z M419.854,318.298c0.104-2.018-0.107-3.907-1.051-5.649
		c-1.444-2.669-5.722-2.943-7.357-0.391c-2.285,3.568-2.68,7.936-0.208,11.684c1.783,2.706,5.14,2.759,7.085,0.147
		C419.632,322.332,420.012,320.352,419.854,318.298z"/>
	<path fill-rule="evenodd" clip-rule="evenodd" fill="#FEFDFB" d="M385.443,338.856c-0.761-0.045-0.906,0.741-1.228,1.152
		c-3.323,4.244-8.848,3.952-12.422,0.317c-2.257-2.295-3.652-5.104-4.494-8.138c-1.822-6.563-1.812-13.188,0.028-19.741
		c0.827-2.947,2.306-5.603,4.355-7.966c4.13-4.769,11.739-4.772,15.868,0.288c2.218,2.721,3.663,5.791,4.576,9.146
		c1.998,7.345,1.924,14.86,1.882,22.378c-0.032,5.538-0.548,11.022-1.931,16.391c-1.065,4.137-2.958,7.816-6.297,10.664
		c-4.44,3.789-13.068,3.702-16.231-3.016c-1.018-2.163-1.88-4.354-2.271-6.695c-0.631-3.771-0.578-3.78,3.21-4.395
		c0.227-0.037,0.455-0.071,0.685-0.086c0.988-0.065,2.111-0.444,2.926-0.099c0.886,0.376,0.343,1.668,0.589,2.528
		c0.414,1.449,1.23,2.648,2.386,3.571c1.343,1.073,3.352,0.908,4.623-0.307c1.481-1.416,2.404-3.199,2.849-5.149
		c0.77-3.364,1.269-6.78,1.183-10.253C385.724,339.231,385.734,338.996,385.443,338.856z M373.697,322.044
		c0.002,3.779,0.671,7.367,1.668,9.307c1.892,3.684,5.337,3.865,7.733,0.529c1.525-2.125,1.836-4.52,1.923-6.956
		c0.138-3.989,0.014-7.962-2.151-11.548c-0.897-1.488-2.124-2.45-3.877-2.456c-1.749-0.006-2.735,1.161-3.455,2.609
		C374.146,316.331,373.518,319.289,373.697,322.044z"/>
	<path fill-rule="evenodd" clip-rule="evenodd" fill="#FEFDFB" d="M449.196,364.808c-4.146,0-8.292,0.015-12.438-0.007
		c-1.781-0.009-1.763-0.045-1.604-1.837c0.673-7.621,3.709-14.281,8.124-20.428c2.807-3.907,5.757-7.724,8.184-11.89
		c1.576-2.708,3.013-5.502,3.669-8.604c0.606-2.867,0.345-5.637-1.177-8.207c-1.391-2.349-2.949-3.233-4.986-2.868
		c-2.033,0.364-3.901,2.281-4.331,4.543c-0.257,1.356-0.419,2.73-0.594,4.1c-0.104,0.825-0.415,1.155-1.349,1.074
		c-1.92-0.168-3.795-0.545-5.672-0.94c-0.611-0.128-0.975-0.348-0.938-1.039c0.277-5.146,1.408-9.916,4.939-13.989
		c4.244-4.894,12.722-4.906,16.921-0.668c3.094,3.124,4.817,6.827,5.184,11.198c0.771,9.195-1.799,17.377-7.355,24.691
		c-1.801,2.371-3.517,4.81-5.221,7.252c-0.785,1.125-1.487,2.313-2.153,3.515c-1.465,2.639-1.446,2.653,1.485,2.656
		c3.609,0.005,7.217,0.002,10.825,0.002c0.461,0.001,0.923,0.024,1.382,0.003c0.897-0.042,1.221,0.415,1.218,1.26
		c-0.014,2.995-0.034,5.989,0.01,8.982c0.017,1.111-0.586,1.214-1.456,1.21C457.642,364.796,453.419,364.808,449.196,364.808z"/>
	<path fill-rule="evenodd" clip-rule="evenodd" fill="#FEFDFB" d="M343.998,319.573c-2.825,3.087-5.569,6.273-9.438,8.098
		c-0.639-0.412-0.386-0.999-0.402-1.489c-0.038-1.149-0.014-2.3-0.012-3.451c0.001-1.611-0.211-3.261,0.066-4.823
		c0.302-1.706,2.31-1.996,3.327-3.19c2.468-2.894,5.391-5.436,6.955-9.018c0.518-1.188,1.001-2.403,1.344-3.647
		c0.229-0.83,0.623-1.126,1.437-1.103c1.38,0.038,2.762,0.019,4.142,0.02c0.756,0,1.12,0.354,1.087,1.126
		c-0.022,0.536,0.001,1.073,0.001,1.61c0,19.486,0,38.973,0,58.46c0,0.384-0.033,0.771,0.004,1.15
		c0.104,1.043-0.237,1.556-1.395,1.51c-1.761-0.073-3.529-0.042-5.292-0.015c-0.873,0.014-1.267-0.346-1.229-1.223
		c0.028-0.611-0.002-1.227-0.002-1.84c0-13.196,0-26.393,0-39.588c0-0.813,0-1.626,0-2.438
		C344.395,319.672,344.196,319.623,343.998,319.573z"/>
	<path fill-rule="evenodd" clip-rule="evenodd" fill="#C98B12" d="M417.168,52.278c0.476-0.175,0.938-0.154,1.386,0.086
		C418.093,52.335,417.63,52.308,417.168,52.278z"/>
	<path fill-rule="evenodd" clip-rule="evenodd" fill="#FAFAFC" d="M382.166,52.039c0.279-0.022,0.559-0.045,0.838-0.067
		C382.742,52.205,382.461,52.219,382.166,52.039z"/>
	<path fill-rule="evenodd" clip-rule="evenodd" fill="#C98B12" d="M492.397,272.523c-61.307,0-122.666,0-184.022,0
		c-0.354-0.603,0.065-1.021,0.332-1.466c4.762-7.925,9.556-15.83,14.257-23.788c0.766-1.295,1.614-1.746,3.104-1.745
		c49.435,0.039,98.871,0.033,148.305,0.024c1.186,0,2.113,0.081,2.861,1.329c4.944,8.258,9.993,16.453,15.009,24.667
		C492.401,271.805,492.603,272.048,492.397,272.523z"/>
	<path fill-rule="evenodd" clip-rule="evenodd" fill="#14137C" d="M186.455,244.77c-12.68-11.212-25.106-22.197-37.644-33.282
		c2.697-2.957,5.354-5.869,8.104-8.883c5.663,4.975,11.241,9.873,17.171,15.081c-0.271-5.088-0.367-9.669-0.801-14.217
		c-0.424-4.438-0.378-8.895-0.805-13.325c-0.059-0.611,0.039-1.261-0.132-1.833c-0.651-2.185,0.27-3.689,1.763-5.215
		c2.401-2.45,4.597-5.101,6.883-7.665c0.449-0.503,0.909-0.993,1.307-1.427c0.811,0.214,0.61,0.766,0.611,1.175
		c0.012,8.75,0.71,17.476,0.935,26.219c0.049,1.893,0.078,1.879,1.905,2.056c7.938,0.769,15.854,1.745,23.781,2.601
		c3.81,0.411,7.603,1.03,11.439,1.21c0.671,0.031,1.381-0.05,2.033,0.376c-0.161,0.713-0.689,1.122-1.129,1.614
		c-2.496,2.783-5.026,5.539-7.412,8.413c-0.899,1.082-1.686,1.395-3.104,1.129c-3.387-0.633-6.825-0.987-10.24-1.472
		c-3.035-0.431-6.082-0.797-9.092-1.358c-2.343-0.438-4.747-0.359-7.061-0.979c-0.698-0.187-0.955,0.199-0.873,0.897
		c0.412,3.509,0.593,7.034,0.705,10.563c0.033,1.012,0.807,1.415,1.396,1.958c3.362,3.104,6.75,6.181,10.126,9.271
		c0.106,0.097,0.171,0.237,0.354,0.499c-2.116,2.326-4.251,4.688-6.401,7.036c-1.313,1.435-3.27,2.136-4.059,4.231
		c-0.688,1.824-2.139,3.349-2.958,5.141c-0.659,1.443-1.567,1.652-2.908,1.406c-2.939-0.537-5.887-1.027-8.829-1.549
		c-2.167-0.386-2.163-0.393-3.239,1.487c-3.223,5.629-6.414,11.275-9.701,16.867c-0.66,1.123-0.6,1.826,0.237,2.824
		c1.959,2.335,3.766,4.799,5.625,7.22c1.327,1.728,1.321,1.734,0.238,3.557c-0.818,1.376-1.588,2.785-2.472,4.118
		c-1.914,2.885-3.443,5.933-4.291,9.307c-0.339,1.352-1.108,2.017-2.589,2.471c-6.349,1.951-12.759,3.714-19.028,5.939
		c-3.796,1.348-6.112,3.853-7.328,7.572c-0.376,1.151-0.828,2.278-1.288,3.534c2.613,1.268,5.419,1.969,8.113,2.948
		c3.869,1.409,7.809,2.622,11.717,3.92c0.611,0.203,1.215,0.451,0.927,1.277c-1.198,3.447-2.416,6.886-3.662,10.431
		c-11.168-3.93-22.166-7.806-33.167-11.669c-5.33-1.871-10.651-3.769-16.014-5.537c-1.157-0.381-1.216-0.827-0.864-1.798
		c3.02-8.328,5.988-16.675,9.026-24.997c0.995-2.726,2.208-5.376,3.739-7.843c2.371-3.821,5.81-5.956,10.363-6.222
		c3.223-0.188,6.24,0.502,9.063,2.022c3.446,1.855,5.43,4.819,6.309,8.573c0.653,2.789,0.823,5.593-0.107,8.462
		c1.104-0.115,1.586-0.729,2.167-1.202c3.027-2.468,6.607-3.76,10.308-4.771c2.654-0.726,5.327-1.386,7.98-2.111
		c0.575-0.156,1.178-0.34,1.695-0.927c-3.192-4.271-6.381-8.543-9.574-12.809c-6.54-8.735-13.058-17.485-19.647-26.182
		c-0.955-1.26-1.09-2.221-0.22-3.589c1.594-2.507,3.047-5.11,4.434-7.739c0.48-0.912,1.028-1.13,1.977-1.105
		c3.311,0.083,6.544,0.809,9.827,1.132c6.407,0.63,12.779,1.601,19.17,2.394c3.423,0.425,6.858,0.76,10.284,1.164
		c4.036,0.478,8.069,0.976,12.1,1.492C184.434,244.755,185.221,244.991,186.455,244.77z M118.048,291.893
		c-2.151,0.151-3.983,1.462-5.053,3.794c-2.263,4.93-3.851,10.11-5.617,15.224c-0.433,1.256-0.221,1.479,1.51,2.103
		c3.226,1.157,6.478,2.246,9.676,3.474c0.928,0.355,1.257,0.066,1.522-0.704c0.542-1.584,1.141-3.15,1.625-4.753
		c1.123-3.719,2.658-7.31,3.352-11.165C125.835,295.571,122.888,291.941,118.048,291.893z M159.387,252.824
		c-7.032-0.93-13.586-1.796-20.203-2.67c0.052,0.275,0.043,0.366,0.083,0.424c3.694,5.241,7.892,10.094,11.746,15.213
		c0.529,0.702,0.986,0.467,1.366-0.254c0.965-1.82,1.967-3.622,2.963-5.425C156.626,257.788,157.918,255.47,159.387,252.824z"/>
	<path fill-rule="evenodd" clip-rule="evenodd" fill="#14147C" d="M535.189,180.142c-3.366-1.966-6.546-4.138-9.82-6.403
		c2.067-3.249,4.044-6.413,6.073-9.542c7.222-11.134,14.463-22.257,21.694-33.385c0.124-0.19,0.214-0.404,0.324-0.604
		c0.56-1.008,1.146-1.09,2.154-0.395c4.763,3.287,9.614,6.445,14.385,9.72c3.829,2.628,7.907,4.891,11.513,7.842
		c0.941,0.77,1.795,1.646,2.725,2.431c3.448,2.908,5.665,9.165,3.04,14.944c-1.902,4.188-4.654,7.504-9.283,8.849
		c-2.568,0.746-5.15,0.688-7.709,0.053c-1.377-0.342-2.698-0.903-4.152-1.402c-0.057,1.336,0.658,2.288,1.054,3.304
		c1.113,2.855,1.022,5.874,1.329,8.827c0.595,5.725,0.509,11.479,0.53,17.173c-0.552,0.424-0.939,0.111-1.311-0.129
		c-3.002-1.947-5.955-3.977-9.018-5.822c-1.159-0.697-1.554-1.524-1.563-2.777c-0.052-6.523-0.668-13.021-0.932-19.533
		c-0.146-3.582-1.371-6.515-4.499-8.492c-0.966-0.611-1.912-1.262-2.811-1.967c-1.932-1.519-1.752-0.903-2.724,0.555
		c-3.509,5.264-6.901,10.605-10.342,15.914C535.684,179.554,535.477,179.777,535.189,180.142z M551.842,154.316
		c3.073,2.112,5.888,4.192,8.93,5.935c2.441,1.399,4.753,3.044,7.399,4.063c1.491,0.574,3.015,0.697,4.402-0.255
		c4.586-3.145,5.086-7.135,1.438-10.927c-0.524-0.546-1.123-1.013-1.784-1.428c-2.834-1.774-5.644-3.591-8.427-5.443
		c-1.513-1.007-2.892-2.219-4.634-3.062C556.757,146.857,554.374,150.474,551.842,154.316z"/>
	<path fill-rule="evenodd" clip-rule="evenodd" fill="#14137C" d="M400.004,123.476c-0.39-8.453-0.764-16.421-1.121-24.389
		c-0.131-2.913-0.19-5.829-0.347-8.74c-0.053-0.983,0.297-1.404,1.26-1.451c2.836-0.138,5.672-0.284,8.503-0.473
		c0.966-0.063,1.354,0.227,1.395,1.261c0.265,6.745,0.591,13.488,0.896,20.232c0.437,9.656,0.869,19.313,1.307,28.969
		c0.011,0.229,0.061,0.456,0.07,0.686c0.093,2.001,0.093,2.023-1.926,2.092c-2.686,0.087-5.375,0.074-8.057,0.225
		c-1.279,0.073-2.066-0.289-2.867-1.36c-7.216-9.653-14.51-19.248-21.787-28.854c-0.438-0.578-0.936-1.109-1.572-1.857
		c0,2.266-0.116,4.23,0.022,6.176c0.35,4.899,0.635,9.802,0.691,14.712c0.042,3.61,0.458,7.196,0.565,10.8
		c0.055,1.878,0.032,1.907-1.863,1.981c-2.455,0.097-4.912,0.096-7.365,0.229c-1.143,0.063-1.607-0.226-1.657-1.472
		c-0.17-4.369-0.5-8.73-0.708-13.098c-0.527-11.113-0.951-22.229-1.682-33.331c-0.081-1.225-0.056-2.458-0.163-3.68
		c-0.088-1.017,0.396-1.388,1.312-1.431c3.143-0.15,6.288-0.249,9.425-0.486c1.124-0.085,1.452,0.72,1.913,1.334
		c3.159,4.214,6.274,8.462,9.4,12.703c4.345,5.896,8.685,11.796,13.034,17.689C398.986,122.353,399.349,122.718,400.004,123.476z"/>
	<path fill-rule="evenodd" clip-rule="evenodd" fill="#14147C" d="M577.206,188c2.641,1.977,5.286,4.023,8.011,5.955
		c0.9,0.639,0.69,1.182,0.25,1.868c-0.92,1.438-1.494,2.983-1.683,4.696c-0.368,3.349,0.703,6.21,2.941,8.621
		c2.475,2.667,5.335,4.834,8.933,5.746c3.224,0.817,5.875-0.522,6.933-3.311c0.375-0.988,0.313-1.903-0.049-2.899
		c-0.898-2.468-2.335-4.632-3.676-6.854c-2.049-3.398-4.439-6.576-6.328-10.083c-1.789-3.323-2.611-6.763-2.378-10.563
		c0.268-4.367,4.814-9.624,8.924-10.944c4.453-1.43,8.531-0.728,12.41,1.353c6.39,3.426,11.708,8.162,14.982,14.698
		c3.007,5.999,2.655,11.989-1.515,17.507c-0.321,0.426-0.629,0.874-1.292,1.112c-2.509-2.335-5.062-4.699-7.598-7.083
		c-0.534-0.503-0.801-1.023-0.241-1.784c0.442-0.601,0.765-1.357,0.916-2.091c0.391-1.888,0.521-3.724-0.559-5.551
		c-2.383-4.033-5.577-7.007-10.127-8.354c-2.975-0.88-5.232,1.008-4.889,4.086c0.236,2.109,1.385,3.872,2.457,5.615
		c2.077,3.381,4.279,6.686,6.413,10.03c0.987,1.546,1.799,3.188,2.636,4.818c1.607,3.134,1.782,6.454,1.539,9.86
		c-0.067,0.95-0.479,1.782-0.922,2.574c-2.082,3.724-4.514,7.134-8.842,8.503c-4.846,1.533-9.427,1.078-13.896-1.56
		c-5.813-3.429-10.82-7.67-14.535-13.323c-4.547-6.918-4.416-13.932-0.19-20.954c0.275-0.458,0.578-0.899,0.888-1.334
		C576.804,188.237,576.962,188.173,577.206,188z"/>
	<path fill-rule="evenodd" clip-rule="evenodd" fill="#14147C" d="M680.272,282.124c-3.674,1.505-7.11,2.913-10.613,4.349
		c3.644,8.957,7.183,17.652,10.752,26.427c-2.214,1.286-4.614,2.056-6.901,3.071c-0.783,0.348-1.237,0.199-1.579-0.643
		c-1.094-2.688-2.264-5.343-3.38-8.021c-2.231-5.355-4.438-10.722-6.674-16.074c-0.523-1.251-0.827-1.35-2.122-0.815
		c-3.525,1.454-7.031,2.949-10.574,4.357c-0.896,0.354-0.948,0.767-0.62,1.559c3.736,9.026,7.449,18.065,11.173,27.098
		c0.578,1.402,0.61,1.435-0.843,2.111c-1.797,0.837-3.611,1.642-5.445,2.392c-1.46,0.597-1.568,0.543-2.177-0.903
		c-1.301-3.097-2.561-6.213-3.835-9.321c-3.882-9.464-7.761-18.931-11.647-28.394c-0.629-1.531-0.672-1.582,0.936-2.257
		c5.626-2.358,11.268-4.681,16.91-7.004c7.967-3.28,15.939-6.549,23.909-9.826c1.692-0.697,3.363-1.445,5.068-2.11
		c1.577-0.615,1.815-0.493,2.42,0.989c3.46,8.482,6.913,16.969,10.377,25.45c1.529,3.744,3.029,7.504,4.65,11.209
		c0.509,1.164,0.289,1.557-0.873,1.979c-1.858,0.675-3.623,1.609-5.439,2.403c-1.296,0.566-1.577,0.457-2.101-0.808
		c-3.438-8.325-6.864-16.653-10.306-24.977C681.048,283.662,680.687,282.99,680.272,282.124z"/>
	<path fill-rule="evenodd" clip-rule="evenodd" fill="#14147C" d="M689.561,346.425c0.051,4.608-0.352,9.778-1.681,14.869
		c-2.099,8.041-9.115,10.855-15.299,10.288c-6.741-0.616-11.297-4.467-13.837-10.502c-2.479-5.893-3.895-12.155-3.741-18.568
		c0.199-8.301,4.109-13.946,12.166-17.165c1.43-0.571,1.778-0.326,2.247,1.231c0.725,2.414,1.46,4.825,2.216,7.229
		c0.509,1.62,0.524,1.606-0.928,2.427c-1.948,1.101-3.64,2.486-4.875,4.382c-1.053,1.614-1.26,3.451-1.276,5.289
		c-0.031,3.184,0.625,6.249,2.173,9.054c1.171,2.118,2.763,3.834,5.198,4.549c2.562,0.751,4.926-0.459,5.851-2.995
		c0.609-1.67,0.947-3.386,0.947-5.169c-0.002-2.688,0.038-5.374,0.035-8.062c-0.007-4.085,0.267-8.149,1.742-11.992
		c2.229-5.805,6.727-9.017,12.194-9.333c3.698-0.212,6.982,1.415,9.78,3.892c2.777,2.46,4.424,5.639,5.622,9.052
		c1.455,4.146,2.215,8.478,2.257,12.848c0.068,7.235-1.892,12.781-9.882,16.579c-0.478,0.228-1.015,0.327-1.503,0.536
		c-0.971,0.417-1.452-0.024-1.669-0.919c-0.704-2.898-1.35-5.813-2.117-8.694c-0.265-0.994-0.102-1.552,0.845-2.003
		c1.031-0.493,1.988-1.137,2.764-2.012c1.687-1.903,2.278-4.161,1.971-6.62c-0.4-3.191-0.943-6.371-2.806-9.113
		c-1.493-2.198-3.363-2.927-5.495-2.029c-1.94,0.817-2.379,2.715-2.634,4.518C689.463,340.571,689.337,343.186,689.561,346.425z"/>
	<path fill-rule="evenodd" clip-rule="evenodd" fill="#14147C" d="M482.418,155.384c3.514-8.691,6.962-17.25,10.433-25.798
		c2.929-7.212,5.889-14.413,8.829-21.623c0.654-1.604,0.817-1.722,2.512-1.049c3.26,1.294,6.494,2.656,9.746,3.972
		c7.277,2.942,14.558,5.878,21.841,8.81c1.696,0.684,3.416,1.314,5.104,2.02c0.817,0.34,1.41,0.686,0.839,1.883
		c-0.917,1.919-1.559,3.974-2.274,5.987c-0.341,0.963-0.74,1.346-1.849,0.862c-5.31-2.313-10.649-4.561-15.993-6.798
		c-3.375-1.413-6.771-2.773-10.164-4.144c-1.541-0.622-1.62-0.576-2.225,0.979c-1.164,2.987-2.327,5.974-3.542,9.093
		c1.854,1.432,4.189,1.965,6.321,2.862c6.252,2.63,12.573,5.098,18.874,7.613c0.947,0.379,1.294,0.826,0.837,1.91
		c-0.855,2.036-1.579,4.133-2.266,6.233c-0.287,0.881-0.618,1.047-1.479,0.684c-4.425-1.866-8.874-3.673-13.312-5.507
		c-3.805-1.573-7.614-3.135-11.401-4.75c-0.784-0.334-1.16-0.365-1.523,0.565c-1.416,3.627-2.938,7.213-4.402,10.821
		c-0.369,0.909-0.51,1.516,0.817,2.038c9.078,3.579,18.101,7.301,27.143,10.973c1.373,0.558,1.393,0.576,0.81,1.969
		c-0.794,1.9-1.604,3.796-2.384,5.703c-0.382,0.938-0.804,1.23-1.897,0.765c-4.274-1.821-8.61-3.499-12.918-5.244
		c-7.208-2.918-14.416-5.842-21.619-8.773C485.663,156.784,484.069,156.084,482.418,155.384z"/>
	<path fill-rule="evenodd" clip-rule="evenodd" fill="#14137C" d="M300.727,159.618c-3.253,1.815-6.274,3.431-9.216,5.18
		c-1.208,0.719-2.006,0.46-2.99-0.387c-2.426-2.091-4.985-4.027-7.398-6.133c-0.894-0.781-1.487-0.898-2.578-0.287
		c-5.847,3.274-11.744,6.463-17.666,9.604c-1.184,0.628-1.367,1.311-1.137,2.57c0.592,3.24,0.964,6.52,1.471,9.776
		c0.161,1.032-0.049,1.783-1.037,2.272c-3.204,1.584-6.397,3.193-9.889,4.94c-0.32-2.328-0.694-4.475-0.895-6.638
		c-0.507-5.497-1.084-10.987-1.735-16.47c-0.533-4.491-0.852-9.008-1.31-13.509c-0.627-6.179-1.298-12.354-1.94-18.531
		c-0.211-2.032-0.203-2.039,1.596-3.014c2.678-1.453,5.377-2.869,8.034-4.362c1.15-0.646,1.981-0.549,3.07,0.314
		c11.519,9.148,23.094,18.226,34.651,27.325c2.575,2.028,5.127,4.087,7.723,6.09C299.922,158.701,300.219,159.119,300.727,159.618z
		 M272.062,151.24c-5.529-4.485-10.751-8.722-16.384-13.292c0.898,7.177,1.726,13.79,2.591,20.712
		C262.973,156.13,267.302,153.8,272.062,151.24z"/>
	<path fill-rule="evenodd" clip-rule="evenodd" fill="#14147C" d="M330.107,151.821c-5.616-0.313-10.418-1.799-14.037-6.144
		c-1.467-1.761-2.268-3.812-3.015-5.866c-1.646-4.525-2.899-9.174-3.956-13.88c-1.004-4.479-2.184-8.917-3.292-13.372
		c-0.664-2.67-1.332-5.34-2.007-8.007c-0.208-0.821,0.011-1.242,0.919-1.446c3.057-0.688,6.107-1.414,9.131-2.235
		c0.981-0.267,1.389-0.092,1.618,0.892c0.625,2.68,1.316,5.344,1.979,8.014c1.085,4.375,2.151,8.756,3.258,13.126
		c1.035,4.075,2.11,8.141,3.175,12.209c1.093,4.18,4.46,6.919,8.823,6.97c3.352,0.04,6.529-0.88,9.386-2.612
		c3.23-1.96,4.409-5.008,3.75-8.648c-0.529-2.932-1.339-5.813-2.039-8.713c-1.11-4.606-2.233-9.211-3.349-13.816
		c-0.937-3.864-1.897-7.725-2.795-11.598c-0.367-1.579-0.299-1.57,1.197-1.931c2.9-0.699,5.803-1.39,8.683-2.164
		c0.89-0.239,1.182-0.067,1.398,0.842c0.811,3.424,1.739,6.818,2.592,10.232c1.094,4.378,2.124,8.773,3.247,13.144
		c1.258,4.9,2.543,9.828,2.818,14.87c0.348,6.396-2.519,11.415-7.979,14.711c-4.289,2.59-9.056,4.019-14.034,4.683
		C333.68,151.334,331.78,151.594,330.107,151.821z"/>
	<path fill-rule="evenodd" clip-rule="evenodd" fill="#14137C" d="M441.892,91.271c3.76,0.811,7.185,1.604,10.635,2.262
		c1.296,0.247,1.744,0.95,1.893,2.134c0.382,3.04,0.814,6.073,1.232,9.108c0.803,5.84,1.619,11.678,2.411,17.52
		c0.543,4.002,1.055,8.009,1.612,12.267c0.894-0.527,1.231-1.249,1.655-1.911c6.625-10.336,13.278-20.651,19.855-31.017
		c0.679-1.068,1.317-1.557,2.563-1.279c3.426,0.766,6.862,1.489,10.394,2.25c0.028,0.801-0.489,1.318-0.83,1.834
		c-9.258,13.992-18.543,27.967-27.822,41.943c-0.633,0.952-1.284,1.892-1.891,2.859c-0.461,0.735-1.053,1.023-1.914,0.816
		c-3.419-0.824-6.839-1.648-10.268-2.427c-0.908-0.207-1.131-0.713-1.259-1.584c-0.812-5.528-1.726-11.042-2.563-16.567
		c-0.711-4.692-1.342-9.398-2.054-14.092c-0.803-5.298-1.673-10.585-2.486-15.881C442.651,96.874,442.308,94.232,441.892,91.271z"/>
	<path fill-rule="evenodd" clip-rule="evenodd" fill="#14147C" d="M244.854,192.896c-2.955,2.188-5.755,4.156-8.423,6.291
		c-0.908,0.727-1.268,0.417-1.807-0.268c-3.063-3.897-6.152-7.772-9.206-11.679c-3.867-4.946-3.873-4.894-9.823-6.656
		c-5.785-1.714-11.525-3.584-17.292-5.361c-3.43-1.057-6.876-2.064-10.314-3.1c-0.292-0.088-0.574-0.21-0.857-0.327
		c-0.754-0.312-0.628-0.756-0.154-1.214c0.217-0.211,0.491-0.361,0.725-0.554c2.532-2.088,5.132-4.103,7.562-6.305
		c1.031-0.933,1.998-1.016,3.129-0.609c3.737,1.342,7.455,2.737,11.188,4.086c3.511,1.269,7.035,2.502,10.961,3.896
		c-0.553-2.929-0.659-5.586-0.932-8.228c-0.495-4.806-1.031-9.607-1.604-14.403c-0.179-1.501,0.154-2.523,1.505-3.469
		c3.109-2.176,6.054-4.585,9.007-6.854c0.768,0.239,0.526,0.784,0.547,1.189c0.603,11.494,1.215,22.987,1.748,34.483
		c0.057,1.214,0.674,2.008,1.315,2.831C236.296,182.006,240.497,187.341,244.854,192.896z"/>
	<path fill-rule="evenodd" clip-rule="evenodd" fill="#14147C" d="M657.063,238.333c-1.982-3.083-3.874-6.026-5.767-8.97
		c-0.949-1.477-1.885-2.962-2.857-4.423c-0.475-0.713-0.395-1.267,0.318-1.734c1.913-1.256,3.839-2.491,5.729-3.779
		c0.896-0.611,1.224,0.033,1.598,0.612c1.859,2.886,3.72,5.772,5.562,8.67c5.813,9.144,11.617,18.293,17.423,27.442
		c0.244,0.387,0.454,0.796,0.693,1.188c0.309,0.506,0.106,0.922-0.304,1.188c-2.049,1.323-4.121,2.609-6.181,3.919
		c-1.04,0.661-1.373-0.247-1.749-0.841c-2.244-3.544-4.449-7.113-6.672-10.671c-0.481-0.769-0.985-1.522-1.548-2.39
		c-3.251,2.036-6.412,4.002-9.561,5.989c-8.633,5.45-17.257,10.914-25.893,16.361c-1.688,1.064-1.715,1.05-2.744-0.526
		c-1.791-2.743-3.565-5.496-5.509-8.495C632.072,254.038,644.49,246.234,657.063,238.333z"/>
	<path fill-rule="evenodd" clip-rule="evenodd" fill="#14147C" d="M97.602,348.974c3.81,0.991,7.49,1.255,11.098,1.92
		c3.387,0.623,6.804,1.085,10.21,1.605c2.724,0.416,5.452,0.813,8.177,1.221c2.954,0.442,5.92,0.819,8.855,1.362
		c1.361,0.252,2.718,0.461,4.093,0.566c0.872,0.066,1.185,0.445,1.034,1.35c-0.519,3.094-1.03,6.19-1.437,9.301
		c-0.158,1.203-0.768,1.346-1.727,1.143c-2.026-0.432-4.077-0.677-6.127-0.965c-4.852-0.683-9.67-1.585-14.514-2.332
		c-4.994-0.771-10.002-1.454-15.002-2.196c-1.666-0.247-3.315-0.627-4.986-0.82c-1.642-0.19-1.615-0.116-1.837,1.444
		c-0.648,4.548-1.317,9.094-2,13.636c-0.228,1.514-0.281,1.594-1.73,1.315c-2.112-0.406-4.22-0.792-6.373-0.879
		c-1.018-0.041-1.275-0.558-1.125-1.521c0.438-2.8,0.743-5.62,1.223-8.412c1.324-7.695,2.512-15.412,3.675-23.135
		c0.581-3.858,1.416-7.682,1.794-11.571c0.106-1.084,0.598-1.467,1.659-1.293c2.116,0.345,4.182,0.966,6.334,1.101
		c1.021,0.064,1.227,0.679,1.084,1.58c-0.419,2.647-0.809,5.3-1.212,7.951C98.39,343.841,98.006,346.338,97.602,348.974z"/>
	<path fill-rule="evenodd" clip-rule="evenodd" fill="#14147C" d="M641.638,202.664c2.404,2.767,4.772,5.532,7.191,8.252
		c0.718,0.808,0.195,1.23-0.351,1.679c-1.354,1.11-2.733,2.191-4.091,3.296c-11.474,9.327-22.938,18.663-34.426,27.972
		c-0.579,0.47-1.07,1.123-2.083,1.318c-2.22-2.77-4.458-5.646-6.802-8.434c-0.669-0.796-0.086-1.111,0.313-1.446
		c1.807-1.519,3.66-2.982,5.492-4.47c11.357-9.225,22.712-18.451,34.068-27.674C641.124,203.018,641.312,202.897,641.638,202.664z"
		/>
	<path fill-rule="evenodd" clip-rule="evenodd" fill="#14147C" d="M433.35,94.771c-0.643,7.49-1.262,14.98-1.931,22.468
		c-0.752,8.401-1.57,16.798-2.299,25.201c-0.1,1.142-0.331,1.697-1.612,1.486c-2.729-0.449-5.521-0.205-8.253-0.7
		c-1.866-0.338-1.889-0.3-1.741-2.095c0.674-8.179,1.371-16.354,2.03-24.534c0.438-5.429,0.808-10.863,1.241-16.291
		c0.238-2.982,0.591-5.955,0.798-8.938c0.081-1.15,0.701-1.151,1.54-1.073c3.131,0.289,6.236,0.863,9.395,0.853
		c0.759-0.002,1.142,0.3,1.074,1.104c-0.072,0.841-0.106,1.684-0.157,2.526C433.406,94.776,433.378,94.773,433.35,94.771z"/>
	<path fill-rule="evenodd" clip-rule="evenodd" fill="#14147C" d="M660.855,378.254c0.901-0.441,1.76-0.438,2.593-0.466
		c2.992-0.097,5.955-0.491,8.93-0.771c5.188-0.487,10.39-0.819,15.581-1.264c4.731-0.405,9.458-0.881,14.188-1.311
		c3.509-0.319,7.022-0.599,10.531-0.931c0.824-0.077,1.058,0.261,1.112,1.023c0.218,3.057,0.439,6.114,0.755,9.161
		c0.12,1.151-0.312,1.42-1.364,1.51c-7.405,0.628-14.805,1.324-22.208,1.98c-6.257,0.556-12.514,1.112-18.776,1.622
		c-3.055,0.248-6.075,0.861-9.153,0.861c-1.636,0.001-1.67,0.013-1.753-1.613C661.123,384.775,660.996,381.491,660.855,378.254z"/>
	<path fill-rule="evenodd" clip-rule="evenodd" fill="#14147C" d="M645.475,199.858c2.473-1.936,4.762-3.673,6.981-5.496
		c0.874-0.717,1.403-0.512,1.999,0.29c1.897,2.558,3.821,5.096,5.775,7.694c-2.111,2.15-4.629,3.736-6.838,5.688
		c-0.64,0.563-1.138,0.407-1.68-0.299C649.73,205.152,647.675,202.623,645.475,199.858z"/>
	<path fill-rule="evenodd" clip-rule="evenodd" fill="#14147C" d="M422.422,85.577c-0.05-3.111,0.474-5.894,0.769-8.697
		c0.094-0.888,0.474-1.183,1.345-1.063c2.884,0.4,5.788,0.553,8.697,0.594c0.846,0.013,1.28,0.276,1.184,1.21
		c-0.274,2.661-0.53,5.326-0.753,7.992c-0.076,0.928-0.697,0.874-1.304,0.823C429.086,86.166,425.815,85.873,422.422,85.577z"/>
	<path fill-rule="evenodd" clip-rule="evenodd" fill="#14147C" d="M723.921,372.973c0.534,0,1.069,0.022,1.602-0.004
		c2.835-0.137,2.788-0.137,2.991,2.813c0.142,2.053,0.453,4.094,0.647,6.144c0.148,1.552,0.132,1.643-1.489,1.842
		c-2.498,0.307-5.014,0.469-7.519,0.714c-0.677,0.067-0.98-0.194-1.032-0.862c-0.239-3.044-0.477-6.087-0.753-9.126
		c-0.088-0.956,0.426-1.178,1.208-1.221c1.447-0.078,2.896-0.174,4.343-0.261C723.919,372.998,723.92,372.986,723.921,372.973z"/>
	<path fill-rule="evenodd" clip-rule="evenodd" fill="#14147C" d="M326.923,83.958c2.853-1.201,5.885-1.635,8.766-2.575
		c0.7-0.229,0.966,0.077,1.129,0.703c0.576,2.21,1.165,4.417,1.778,6.617c0.288,1.03,0,1.456-1.111,1.67
		c-2.464,0.477-4.897,1.123-7.337,1.722c-1.08,0.264-1.438-0.16-1.636-1.229C328.086,88.563,327.474,86.296,326.923,83.958z"/>
	<path fill-rule="evenodd" clip-rule="evenodd" fill="#14147C" d="M313.119,96.458c-1.002-2.448-1.223-5.06-2.006-7.517
		c-0.245-0.767-0.201-1.377,0.948-1.6c2.164-0.418,4.27-1.131,6.417-1.649c1.524-0.368,1.726-0.274,2.141,1.145
		c0.578,1.973,1,3.99,1.556,5.969c0.291,1.033,0.004,1.6-1.042,1.833C318.475,95.231,315.821,95.844,313.119,96.458z"/>
	<path fill-rule="evenodd" clip-rule="evenodd" fill="#14147C" d="M530.885,618.614c0.28-0.007,0.357,0.192,0.364,0.41
		c0.009,0.29-0.038,0.603-0.388,0.662c-0.253,0.042-0.382-0.173-0.39-0.399C530.463,618.988,530.567,618.728,530.885,618.614z"/>
	<path fill-rule="evenodd" clip-rule="evenodd" fill="#C98B12" d="M420.933,347.282c-0.19,1.826-0.167,3.667-1.083,5.363
		c-0.637,1.178-1.459,2.188-2.596,2.805c-3.234,1.752-5.516-0.063-6.748-2.555c-1.615-3.262-1.626-6.791-1.16-10.335
		c0.193-1.466,0.684-2.834,1.418-4.093c0.975-1.666,2.375-2.896,4.412-2.763c2.129,0.138,3.693,1.327,4.605,3.271
		C421.021,341.621,421.046,344.445,420.933,347.282z"/>
	<path fill-rule="evenodd" clip-rule="evenodd" fill="#C98B12" d="M419.854,318.298c0.157,2.054-0.223,4.034-1.531,5.791
		c-1.945,2.611-5.302,2.559-7.085-0.147c-2.472-3.748-2.077-8.115,0.208-11.684c1.636-2.553,5.913-2.278,7.357,0.391
		C419.747,314.391,419.959,316.28,419.854,318.298z"/>
	<path fill-rule="evenodd" clip-rule="evenodd" fill="#C98B12" d="M373.697,322.044c-0.179-2.755,0.45-5.713,1.841-8.515
		c0.72-1.448,1.706-2.615,3.455-2.609c1.753,0.006,2.98,0.968,3.877,2.456c2.166,3.586,2.29,7.559,2.151,11.548
		c-0.086,2.437-0.398,4.831-1.923,6.956c-2.396,3.336-5.842,3.154-7.733-0.529C374.368,329.411,373.699,325.823,373.697,322.044z"/>
	<path fill-rule="evenodd" clip-rule="evenodd" fill="#FAFAFC" d="M118.048,291.893c4.839,0.049,7.787,3.679,7.015,7.972
		c-0.693,3.855-2.229,7.446-3.352,11.165c-0.484,1.603-1.083,3.169-1.625,4.753c-0.265,0.771-0.594,1.06-1.522,0.704
		c-3.199-1.228-6.451-2.316-9.676-3.474c-1.731-0.623-1.943-0.847-1.51-2.103c1.766-5.113,3.354-10.294,5.617-15.224
		C114.065,293.354,115.897,292.044,118.048,291.893z"/>
	<path fill-rule="evenodd" clip-rule="evenodd" fill="#FAFAFC" d="M159.387,252.824c-1.469,2.646-2.761,4.964-4.045,7.288
		c-0.996,1.803-1.998,3.604-2.963,5.425c-0.38,0.721-0.837,0.956-1.366,0.254c-3.854-5.119-8.052-9.972-11.746-15.213
		c-0.04-0.058-0.031-0.148-0.083-0.424C145.801,251.028,152.355,251.895,159.387,252.824z"/>
	<path fill-rule="evenodd" clip-rule="evenodd" fill="#FAFAFC" d="M551.842,154.316c2.532-3.843,4.915-7.459,7.325-11.117
		c1.742,0.843,3.121,2.055,4.634,3.062c2.783,1.853,5.593,3.669,8.427,5.443c0.661,0.415,1.26,0.882,1.784,1.428
		c3.647,3.792,3.147,7.782-1.438,10.927c-1.388,0.952-2.911,0.829-4.402,0.255c-2.646-1.019-4.958-2.663-7.399-4.063
		C557.729,158.509,554.915,156.429,551.842,154.316z"/>
	<path fill-rule="evenodd" clip-rule="evenodd" fill="#FAFAFC" d="M272.062,151.24c-4.76,2.56-9.088,4.89-13.793,7.42
		c-0.865-6.922-1.692-13.535-2.591-20.712C261.311,142.519,266.532,146.755,272.062,151.24z"/>
</g>
</svg>
